<?xml version="1.0" encoding="UTF-8" standalone="no"?>
<!-- Generator: Adobe Illustrator 16.0.0, SVG Export Plug-In . SVG Version: 6.00 Build 0)  -->

<svg
   xmlns:dc="http://purl.org/dc/elements/1.1/"
   xmlns:cc="http://creativecommons.org/ns#"
   xmlns:rdf="http://www.w3.org/1999/02/22-rdf-syntax-ns#"
   xmlns:svg="http://www.w3.org/2000/svg"
   xmlns="http://www.w3.org/2000/svg"
   xmlns:sodipodi="http://sodipodi.sourceforge.net/DTD/sodipodi-0.dtd"
   xmlns:inkscape="http://www.inkscape.org/namespaces/inkscape"
   version="1.1"
   id="Capa_1"
   x="0px"
   y="0px"
   width="40.760002"
   height="40.68"
   viewBox="0 0 40.760002 40.68"
   xml:space="preserve"
   sodipodi:docname="AurisLogo.svg"
   inkscape:version="0.92.3 (2405546, 2018-03-11)"><metadata
   id="metadata41"><rdf:RDF><cc:Work
       rdf:about=""><dc:format>image/svg+xml</dc:format><dc:type
         rdf:resource="http://purl.org/dc/dcmitype/StillImage" /><dc:title></dc:title></cc:Work></rdf:RDF></metadata><defs
   id="defs39"><filter
     style="color-interpolation-filters:sRGB;"
     inkscape:label="Clean Edges"
     id="filter958"><feGaussianBlur
       stdDeviation="0.783889"
       result="blur"
       id="feGaussianBlur952" /><feComposite
       in="SourceGraphic"
       in2="blur"
       operator="in"
       result="composite1"
       id="feComposite954" /><feComposite
       in="composite1"
       in2="composite1"
       k2="1"
       operator="in"
       result="composite2"
       id="feComposite956" /></filter></defs><sodipodi:namedview
   pagecolor="#ffffff"
   bordercolor="#666666"
   borderopacity="1"
   objecttolerance="10"
   gridtolerance="10"
   guidetolerance="10"
   inkscape:pageopacity="0"
   inkscape:pageshadow="2"
   inkscape:window-width="1920"
   inkscape:window-height="979"
   id="namedview37"
   showgrid="false"
   inkscape:zoom="17.895772"
   inkscape:cx="20.380001"
   inkscape:cy="20.34"
   inkscape:window-x="0"
   inkscape:window-y="25"
   inkscape:window-maximized="1"
   inkscape:current-layer="Capa_1"
   fit-margin-top="0"
   fit-margin-left="0"
   fit-margin-right="0"
   fit-margin-bottom="0" />

<g
   id="g6"
   transform="translate(3.0812474,3.3218713)">
</g>
<g
   id="g8"
   transform="translate(3.0812474,3.3218713)">
</g>
<g
   id="g10"
   transform="translate(3.0812474,3.3218713)">
</g>
<g
   id="g12"
   transform="translate(3.0812474,3.3218713)">
</g>
<g
   id="g14"
   transform="translate(3.0812474,3.3218713)">
</g>
<g
   id="g16"
   transform="translate(3.0812474,3.3218713)">
</g>
<g
   id="g18"
   transform="translate(3.0812474,3.3218713)">
</g>
<g
   id="g20"
   transform="translate(3.0812474,3.3218713)">
</g>
<g
   id="g22"
   transform="translate(3.0812474,3.3218713)">
</g>
<g
   id="g24"
   transform="translate(3.0812474,3.3218713)">
</g>
<g
   id="g26"
   transform="translate(3.0812474,3.3218713)">
</g>
<g
   id="g28"
   transform="translate(3.0812474,3.3218713)">
</g>
<g
   id="g30"
   transform="translate(3.0812474,3.3218713)">
</g>
<g
   id="g32"
   transform="translate(3.0812474,3.3218713)">
</g>
<g
   id="g34"
   transform="translate(3.0812474,3.3218713)">
</g>
<circle
   style="opacity:0.89299999;fill:#d5e5ff;fill-opacity:1;stroke:none;stroke-width:2.87678933;stroke-linecap:round;stroke-miterlimit:1;stroke-dasharray:none;stroke-dashoffset:0;stroke-opacity:1"
   id="path960"
   cx="21.331247"
   cy="21.571871"
   r="17.224775" /><g
   id="g4"
   style="fill:#0000aa;filter:url(#filter958)"
   transform="translate(3.0812474,3.3218713)">
	<path
   inkscape:connector-curvature="0"
   d="M 18.25,0 C 8.188,0 0,8.187 0,18.25 0,28.312 8.188,36.5 18.25,36.5 28.312,36.5 36.5,28.312 36.5,18.25 36.5,8.187 28.312,0 18.25,0 Z m 9.814,6.988 c 0.043,0.036 0.095,0.062 0.15,0.062 0.033,0 0.066,-0.006 0.1,-0.02 0.127,-0.051 0.187,-0.199 0.138,-0.326 -0.071,-0.185 -0.183,-0.382 -0.29,-0.579 0.013,-0.002 0.025,-0.002 0.039,-0.005 0.016,-0.004 0.029,-0.009 0.045,-0.016 0.352,0.678 0.518,1.007 0.6,1.21 C 28.844,7.313 28.842,7.313 28.84,7.312 28.774,7.279 28.695,7.277 28.626,7.308 28.559,7.338 28.508,7.397 28.488,7.468 28.411,7.396 28.3,7.279 28.121,7.079 28.1,7.056 28.074,7.037 28.047,7.023 28.055,7.012 28.059,7 28.064,6.988 Z M 7.197,5.972 C 7.256,5.98 7.312,5.966 7.361,5.934 7.386,5.918 7.416,5.905 7.448,5.895 7.458,5.947 7.484,5.995 7.525,6.033 7.56,6.066 7.605,6.087 7.65,6.095 7.63,6.117 7.611,6.141 7.588,6.166 7.533,6.229 7.514,6.314 7.533,6.395 7.554,6.476 7.615,6.541 7.693,6.567 L 7.705,6.571 C 5.447,8.631 4.414,9.574 3.873,10.108 4.743,8.576 5.859,7.177 7.197,5.972 Z M 1.718,18.25 c 0,-1.144 0.12,-2.275 0.353,-3.378 0.043,0.034 0.097,0.053 0.152,0.053 h 0.174 c 0.008,0 0.016,0 0.021,0 -0.089,0.359 -0.167,0.678 -0.236,0.999 -0.006,0.026 -0.004,0.086 0,0.112 0.049,0.472 0.116,1.118 0.199,1.597 0.012,0.07 0.053,0.131 0.113,0.169 2.271,1.433 3.451,4.015 3.689,4.58 -0.695,1.138 -0.938,2.06 -0.74,2.819 0.22,0.851 0.939,1.29 1.508,1.605 0.057,0.225 0.117,0.444 0.184,0.663 0.012,0.038 0.031,0.073 0.059,0.104 0.016,0.015 1.416,1.462 2.748,1.923 0.427,1.98 1.576,3.508 3.422,4.538 0.006,0.005 0.011,0.011 0.016,0.016 C 6.507,31.947 1.718,25.615 1.718,18.25 Z m 31.223,6.721 c -0.102,0.354 -0.217,0.717 -0.336,1.06 -0.396,0.629 -0.719,1.303 -1.031,1.954 l -0.042,0.098 c -3.115,4.195 -8.081,6.702 -13.282,6.702 -0.714,0 -1.436,-0.048 -2.146,-0.142 -0.008,-0.039 -0.027,-0.078 -0.058,-0.108 L 15.961,34.432 C 15.94,34.406 15.91,34.381 15.878,34.367 l -0.285,-0.142 c -0.185,-0.272 -0.183,-0.285 -0.141,-0.48 0,-0.003 10e-4,-0.008 0.002,-0.012 0.007,0 0.014,0 0.021,0 l 0.172,0.002 c 0.06,0 0.176,-0.045 0.222,-0.125 0.046,-0.08 0.045,-0.176 -10e-4,-0.254 -0.006,-0.01 -0.012,-0.02 -0.018,-0.027 0.023,-0.01 0.049,-0.018 0.074,-0.023 0.225,-0.072 0.457,-0.148 0.672,-0.289 0.059,0.016 0.117,0.031 0.166,0.045 0.074,0.021 0.154,0.004 0.215,-0.041 l 0.287,-0.215 c 0.063,-0.047 0.1,-0.119 0.102,-0.195 0.011,-0.66 0.013,-0.781 -0.075,-1.092 1.812,-1.103 2.047,-1.273 1.729,-2.065 1.086,-1.187 1.131,-1.261 1.181,-2.101 0.006,-0.1 0.011,-0.225 0.013,-0.317 0.003,-0.136 -0.104,-0.25 -0.238,-0.255 -0.107,-0.004 -2.643,-0.123 -4.165,-1.579 -0.052,-0.048 -0.113,-0.078 -0.195,-0.068 -0.228,0.019 -0.594,0.046 -1.147,0.435 l -0.091,-0.062 0.189,-0.201 c 0.072,-0.076 0.09,-0.189 0.041,-0.283 -0.64,-1.268 -0.834,-1.404 -1.465,-1.488 C 12.372,23.43 12.372,23.43 12.145,22.691 12.132,22.652 12.112,22.617 12.083,22.587 L 11.861,22.358 C 11.222,21.737 10.449,21.436 9.631,21.119 9.594,21.104 9.556,21.1 9.515,21.102 L 9.073,21.147 C 8.662,20.901 8.467,20.78 8.077,20.535 7.979,20.472 7.852,20.485 7.768,20.565 7.513,20.813 7.397,20.862 7.29,20.862 7.062,20.862 6.679,20.608 6.05,20.186 5.927,19.895 5.536,19.387 4.981,19.028 L 4.916,18.867 C 4.942,18.628 4.973,18.389 5.007,18.155 5.251,17.863 5.314,17.737 5.413,17.363 5.433,17.292 5.419,17.216 5.377,17.155 5.335,17.094 5.269,17.055 5.194,17.049 4.79,17.016 4.524,17.185 4.207,17.537 4.147,17.51 4.09,17.483 4.032,17.455 3.977,17.209 3.87,16.607 3.936,15.967 c 0.23,-0.129 0.316,-0.274 0.75,-1.084 0.791,0.028 0.819,0.049 1.328,0.397 0.077,0.053 0.176,0.06 0.26,0.014 0.069,-0.037 0.148,-0.081 0.233,-0.128 l 0.063,0.203 c 0.029,0.098 0.117,0.167 0.22,0.175 0.116,0.01 0.188,0.013 0.271,0.002 -0.018,0.3 0.008,0.596 0.03,0.884 0.022,0.279 0.044,0.542 0.031,0.805 -0.005,0.099 0.05,0.192 0.139,0.236 0.04,0.02 0.084,0.024 0.127,0.022 -0.047,0.011 -0.096,0.018 -0.147,0.041 -0.149,-0.357 -0.428,-0.437 -0.604,-0.438 -0.22,-0.004 -0.35,-0.017 -0.556,-0.047 -0.1,-0.014 -0.195,0.029 -0.248,0.113 -0.053,0.083 -0.053,0.19 0.003,0.273 0.127,0.19 0.377,0.467 1.086,0.672 h 0.001 c 0.264,0.448 0.37,0.49 1.014,0.644 0.019,0.004 0.037,0.007 0.058,0.007 0.061,0 0.12,-0.021 0.167,-0.062 L 8.336,18.541 C 8.398,18.483 8.436,18.399 8.421,18.315 8.406,18.229 8.356,18.161 8.275,18.127 8.254,18.113 8.203,18.061 8.068,17.885 7.88,17.632 7.755,17.465 7.511,17.465 c -0.025,0 -0.055,0.015 -0.08,0.019 0.036,-0.008 0.073,-0.019 0.104,-0.044 L 8.329,16.774 C 8.415,16.702 8.442,16.581 8.395,16.479 L 8.184,16.017 c 0.035,-0.121 0.068,-0.224 0.118,-0.342 0.031,-0.007 0.062,-0.02 0.089,-0.038 0.156,-0.108 0.332,-0.188 0.52,-0.273 0.165,-0.075 0.336,-0.152 0.5,-0.253 0.224,0.005 0.414,0.041 0.627,0.08 0.091,0.018 0.181,-0.016 0.238,-0.086 0.689,-0.836 0.728,-0.881 0.91,-1.061 1.172,-0.518 1.209,-0.528 4.346,-1.385 0.109,-0.03 0.187,-0.133 0.184,-0.249 -0.004,-0.115 -0.085,-0.213 -0.197,-0.237 -0.138,-0.029 -0.188,-0.04 -0.252,-0.098 l 0.229,-0.249 c 0.06,-0.064 0.082,-0.155 0.058,-0.239 0,-0.002 -10e-4,-0.004 -10e-4,-0.006 0.12,-0.005 0.253,-0.007 0.394,-0.006 0.018,0.047 0.046,0.091 0.092,0.121 0.293,0.24 0.458,0.424 0.48,0.479 0.034,0.078 0.107,0.137 0.191,0.15 0.016,0.002 0.027,0.003 0.043,0.003 0.068,0 0.139,-0.028 0.186,-0.081 l 0.373,-0.42 c 0.062,-0.068 0.08,-0.163 0.051,-0.248 -0.029,-0.085 -0.104,-0.148 -0.192,-0.165 l -0.108,-0.02 c 0.203,-0.145 0.498,-0.394 1.021,-0.838 0.083,-0.07 0.111,-0.184 0.07,-0.284 -0.041,-0.1 -0.146,-0.167 -0.248,-0.156 -0.178,0.011 -0.301,0.027 -0.432,0.062 l 0.002,-0.001 c 0.033,-0.073 0.03,-0.157 -0.009,-0.227 l -0.2,-0.371 C 17.312,9.448 17.33,9.412 17.439,9.212 17.471,9.152 17.478,9.082 17.459,9.017 17.438,8.953 17.393,8.899 17.332,8.869 16.999,8.704 16.708,8.66 16.283,8.735 15.831,7.972 15.769,7.902 15.404,7.835 15.333,7.823 15.258,7.841 15.203,7.886 15.146,7.931 15.111,7.999 15.109,8.071 15.105,8.145 15.103,8.229 15.099,8.313 L 14.834,8.289 c -0.083,-0.012 -0.16,0.024 -0.213,0.084 -0.335,0.384 -0.714,0.745 -1.078,1.094 -0.276,0.264 -0.56,0.535 -0.829,0.82 C 12.536,9.879 12.4,9.199 12.353,8.765 l 1.099,-0.564 c 1.017,-0.641 1.438,-0.906 1.673,-0.906 0.083,0 0.182,0.039 0.324,0.104 -0.029,0.042 -0.053,0.09 -0.053,0.146 0.004,0.127 0.102,0.232 0.229,0.244 0.188,0.017 0.386,0.032 0.585,0.046 l 0.22,0.417 c 0.045,0.083 0.129,0.134 0.223,0.134 0.105,-0.007 0.182,-0.053 0.224,-0.138 0.306,-0.61 0.479,-0.641 0.513,-0.641 0.098,0 0.258,0.166 0.318,0.228 0.047,0.048 0.113,0.073 0.181,0.073 0.072,-0.012 0.138,-0.031 0.185,-0.081 0.103,-0.107 0.312,-0.33 0.363,-0.672 L 18.445,7.072 C 18.455,6.987 18.426,6.902 18.359,6.849 18.318,6.816 18.271,6.798 18.22,6.795 18.213,6.709 18.22,6.585 18.223,6.535 18.228,6.449 18.189,6.367 18.119,6.317 17.933,6.186 17.935,6.145 17.939,6.082 17.945,5.95 17.846,5.837 17.715,5.823 17.694,5.821 17.627,5.803 17.422,5.715 17.286,5.655 17.187,5.623 17.101,5.611 L 17.033,5.465 C 17.003,5.399 16.943,5.349 16.874,5.33 16.809,5.312 16.732,5.322 16.673,5.36 16.668,5.354 16.663,5.349 16.658,5.343 16.59,5.274 16.478,5.253 16.387,5.285 16.244,5.334 16.16,5.366 16.089,5.399 16.087,5.324 16.091,5.258 16.085,5.175 16.081,5.117 16.055,5.069 16.018,5.032 16.042,5.012 16.065,5.004 16.09,4.982 16.14,4.938 16.17,4.876 16.175,4.81 16.18,4.726 16.184,4.612 16.186,4.526 16.188,4.439 16.136,4.362 16.065,4.315 c -0.002,0 -0.002,0 -0.004,0 C 16.1,4.289 16.145,4.255 16.222,4.193 16.364,4.082 16.375,4.006 16.423,3.725 16.44,3.629 16.381,3.544 16.301,3.489 16.221,3.433 16.097,3.441 16.014,3.491 15.43,3.836 15.43,3.836 15.326,3.875 c -0.12,0.044 -0.188,0.173 -0.155,0.297 0.032,0.125 0.147,0.203 0.281,0.184 0.099,-0.016 0.167,-0.026 0.222,-0.036 0.012,0.013 0.028,0.021 0.042,0.03 -0.107,0.05 -0.188,0.09 -0.188,0.09 -0.049,0.025 -0.101,0.089 -0.123,0.139 -0.014,0.029 -0.034,0.06 -0.051,0.09 C 15.301,4.631 15.245,4.6 15.18,4.606 15.209,4.543 15.203,4.467 15.177,4.399 15.141,4.312 15.05,4.25 14.961,4.237 14.9,4.228 14.839,4.227 14.777,4.227 c -0.002,0 -0.002,0 -0.004,0 -0.021,0 -0.041,0 -0.061,0 -0.068,-0.065 -0.168,-0.091 -0.266,-0.054 -0.297,0.115 -0.422,0.171 -0.534,0.24 -0.095,0.057 -0.14,0.169 -0.11,0.275 l 0.019,0.072 c 0.022,0.088 0.091,0.155 0.176,0.179 v 0 c 0.004,0.032 0.022,0.058 0.038,0.085 -0.036,0.01 -0.07,0.02 -0.115,0.036 L 13.852,4.998 C 13.842,4.819 13.803,4.742 13.634,4.588 13.553,4.513 13.434,4.506 13.338,4.564 13.27,4.605 13.227,4.679 13.219,4.757 c -0.005,0.015 -0.033,0.052 -0.051,0.075 -0.059,0.077 -0.139,0.182 -0.15,0.342 -0.004,0.073 0.006,0.137 0.016,0.188 0.004,0.024 0.011,0.061 0.007,0.077 -0.001,0.004 -0.002,0.008 -0.003,0.012 -0.096,0.021 -0.208,0.053 -0.295,0.091 -0.062,0.028 -0.113,0.082 -0.137,0.147 -0.021,0.066 -0.017,0.138 0.017,0.199 0.063,0.122 0.16,0.216 0.272,0.288 L 12.776,6.23 C 12.756,6.218 12.735,6.209 12.714,6.203 12.669,6.191 12.617,6.179 12.566,6.167 L 12.543,5.98 C 12.532,5.899 12.482,5.83 12.411,5.792 12.369,5.77 12.32,5.758 12.275,5.764 12.253,5.747 12.224,5.735 12.197,5.727 12.175,5.721 12.152,5.715 12.13,5.708 L 12.157,5.639 C 12.181,5.575 12.179,5.503 12.15,5.441 12.122,5.379 12.068,5.331 12.003,5.31 11.861,5.264 11.729,5.215 11.6,5.167 11.542,5.145 11.479,5.145 11.418,5.169 11.283,5.223 11.195,5.252 11.129,5.264 L 11.238,5.101 C 11.284,5.035 11.294,4.95 11.265,4.873 11.238,4.797 11.173,4.739 11.095,4.718 10.953,4.68 10.808,4.642 10.523,4.681 10.517,4.657 10.507,4.634 10.496,4.612 10.542,4.54 10.548,4.448 10.511,4.371 10.491,4.329 10.461,4.295 10.424,4.27 10.444,4.197 10.428,4.117 10.378,4.054 10.301,3.957 10.164,3.93 10.061,3.991 9.869,4.099 9.832,4.119 9.481,4.288 9.471,4.282 9.461,4.277 9.452,4.273 c 2.637,-1.673 5.65,-2.55 8.808,-2.55 2.971,0 5.869,0.798 8.415,2.313 -0.047,0.027 -0.062,0.03 -0.079,0.03 -0.092,0 -0.314,-0.08 -0.688,-0.212 -0.087,-0.031 -0.187,-0.011 -0.255,0.051 -0.084,0.078 -0.185,0.15 -0.305,0.221 -0.062,0.038 -0.104,0.104 -0.117,0.177 -0.013,0.073 0.013,0.151 0.061,0.207 0.646,0.75 0.725,0.842 1.021,1.388 -0.098,0.515 0.045,0.629 0.852,1.283 0.088,0.071 0.232,0.059 0.324,-0.006 l 0.097,-0.072 c 0.036,0.021 0.078,0.032 0.121,0.032 h 0.021 C 27.713,7.16 27.706,7.188 27.7,7.218 27.668,7.457 27.705,7.527 28.058,7.96 28.047,7.973 28.037,7.984 28.025,7.993 27.965,8.04 27.931,8.112 27.931,8.188 l 0.002,0.18 C 27.693,8.279 27.642,8.25 27.445,8.141 27.392,8.099 27.383,8.085 27.373,8.07 L 26.957,7.495 C 26.879,7.391 26.732,7.364 26.625,7.433 26.525,7.495 26.407,7.591 26.318,7.678 26.254,7.74 26.23,7.827 26.25,7.911 26.273,8.016 26.314,8.131 26.436,8.275 26.235,8.38 26.11,8.613 26.001,8.849 25.968,8.922 25.997,9.05 26.035,9.12 l 0.242,-0.08 -0.195,0.161 c 0,10e-4 0.048,0.092 0.049,0.093 l 0.242,-0.078 -0.196,0.159 c 0,0 0.046,0.086 0.048,0.086 0,0 0.047,0.091 0.047,0.092 l 0.098,-0.03 c -0.003,0.025 -0.006,0.05 -0.008,0.075 l -0.045,0.036 c 0,10e-4 0.047,0.091 0.047,0.093 l 0.023,0.044 c 0.045,0.083 0.131,0.133 0.221,0.133 0.02,0 0.037,-0.002 0.056,-0.006 0.108,-0.024 0.188,-0.119 0.194,-0.231 0.016,-0.257 0.066,-0.274 0.115,-0.289 0.049,-0.016 0.08,-0.06 0.109,-0.1 L 27.083,9.3 c 0.002,0.067 0.03,0.13 0.079,0.176 0.039,0.038 0.084,0.082 0.128,0.126 -0.011,0.063 0.003,0.128 0.039,0.182 0.04,0.06 0.104,0.1 0.177,0.108 0.124,0.015 0.141,0.017 0.646,0.79 -0.182,0.029 -0.496,0.061 -1.066,0.094 -0.083,0.005 -0.158,0.051 -0.199,0.122 -0.044,0.071 -0.048,0.159 -0.012,0.234 0.109,0.232 0.23,0.457 0.354,0.682 0.09,0.164 0.18,0.327 0.264,0.494 -0.059,0.068 -0.074,0.162 -0.044,0.246 l 0.125,0.359 c 0.003,0.006 0.04,0.11 0.045,0.116 0.021,0.062 0.065,0.115 0.127,0.145 0.062,0.03 0.129,0.033 0.19,0.011 1.109,-0.388 1.157,-0.406 1.719,-0.652 0.125,-0.055 0.184,-0.201 0.131,-0.327 -0.092,-0.21 -0.184,-0.419 -0.278,-0.625 0.153,-0.213 0.191,-0.456 0.228,-0.674 0.027,-0.179 0.054,-0.337 0.135,-0.456 0.048,-0.019 0.094,-0.038 0.14,-0.057 0.57,0.583 0.767,0.763 1.078,0.763 0.071,0 0.142,-0.012 0.212,-0.031 0.061,0.09 0.102,0.142 0.232,0.31 0.08,0.102 0.221,0.12 0.33,0.05 0.106,-0.07 0.143,-0.217 0.082,-0.332 -0.037,-0.072 -0.072,-0.139 -0.114,-0.213 0.163,0.131 0.351,0.283 0.567,0.458 0.067,0.055 0.162,0.07 0.248,0.039 0.084,-0.033 0.144,-0.108 0.154,-0.197 0.012,-0.066 0.014,-0.128 0.012,-0.188 0.008,0.006 0.014,0.012 0.021,0.018 0.078,0.062 0.188,0.072 0.274,0.024 0.016,-0.007 0.025,-0.016 0.037,-0.024 0.133,0.277 0.26,0.559 0.379,0.845 -0.142,0.059 -0.377,0.155 -0.771,0.316 -0.101,0.041 -0.162,0.14 -0.153,0.248 0.008,0.132 0.008,0.198 -0.035,0.358 -0.304,-0.16 -0.75,-0.548 -1.092,-0.907 -0.078,-0.084 -0.214,-0.101 -0.311,-0.042 -0.393,0.223 -1.203,0.687 -2.373,1.006 -0.085,0.023 -0.15,0.09 -0.176,0.176 -0.014,0.052 -0.012,0.106 0.009,0.154 -0.019,0.004 -0.037,0.01 -0.039,0.01 l 0.01,0.256 -0.11,-0.231 c -0.08,0.019 -0.15,0.088 -0.182,0.165 -0.494,1.268 -0.92,2.363 -2.292,4.319 -0.073,0.106 -0.055,0.251 0.044,0.335 l 0.369,0.31 c 0.227,1.631 0.223,1.641 -0.016,2.155 -0.047,0.101 -0.021,0.218 0.062,0.291 2.291,2.046 2.291,2.046 2.838,2.207 0.105,0.03 0.223,-0.013 0.281,-0.106 l 0.26,-0.41 c 0.654,-0.154 1.276,-0.327 1.854,-0.516 0.471,-0.148 0.843,-0.267 1.067,-0.267 0.125,0 0.157,0.036 0.174,0.054 0.23,0.256 0.123,1.564 0,3.174 z M 10.619,11.552 C 10.587,11.448 10.462,11.377 10.351,11.377 L 10.14,11.371 c -0.029,0 -0.062,10e-4 -0.097,0.003 0.017,-0.033 0.022,-0.069 0.022,-0.106 0,-0.087 -0.045,-0.167 -0.119,-0.213 C 9.885,11.018 9.831,10.973 9.774,10.929 9.741,10.902 9.706,10.875 9.67,10.847 c 0.279,-0.219 0.37,-0.161 0.802,-0.014 0.123,0.458 0.248,0.816 0.496,1.078 -0.096,0.061 -0.188,0.126 -0.277,0.191 -0.203,0.146 -0.389,0.277 -0.592,0.343 0.057,-0.119 0.106,-0.249 0.131,-0.395 l 0.318,-0.218 c 0.093,-0.062 0.102,-0.175 0.071,-0.28 z m 3.07,-5.275 c 0.313,-0.07 0.649,-0.246 0.986,-0.521 L 14.773,5.677 C 14.798,5.656 14.812,5.627 14.828,5.599 14.372,6.44 14.326,6.451 14.064,6.451 14.034,6.451 14.002,6.45 13.968,6.449 13.935,6.355 13.851,6.29 13.751,6.282 13.727,6.281 13.711,6.279 13.689,6.277 Z M 14.855,5.55 c 0.006,-0.025 0.004,-0.052 0.002,-0.079 v 0 c 0.014,0.002 0.024,0.003 0.037,0.003 -0.012,0.027 -0.025,0.051 -0.039,0.076 z m 0.653,0.394 0.006,0.035 c 0.02,0.11 0.107,0.194 0.219,0.207 0.01,0.001 0.02,0.002 0.029,0.002 0.032,0 0.062,-0.015 0.09,-0.027 0.01,0.02 0.016,0.03 0.027,0.054 -10e-4,0 -0.002,0 -0.003,0 C 15.697,6.3 15.587,6.346 15.493,6.378 15.471,6.246 15.474,6.103 15.48,5.946 15.486,5.791 15.491,5.636 15.47,5.482 15.458,5.392 15.347,5.294 15.263,5.26 15.238,5.251 15.213,5.261 15.189,5.259 c 0.023,-0.028 0.047,-0.057 0.069,-0.086 0.04,0.042 0.087,0.074 0.146,0.082 0.012,0.001 0.063,0.005 0.074,0.005 0.017,0 0.035,-0.011 0.051,-0.012 -0.045,0.146 -0.066,0.35 -0.021,0.696 z M 16.337,6.683 16.219,6.356 C 16.215,6.345 16.201,6.342 16.198,6.333 c 0.006,-0.002 0.012,10e-4 0.017,-0.001 0.017,-0.008 0.052,-0.021 0.113,-0.021 0.144,0 0.278,0.063 0.346,0.126 -0.228,0.281 -0.372,0.484 -0.534,0.75 -0.056,0.005 -0.104,0.018 -0.156,0.027 0.1,-0.091 0.201,-0.182 0.287,-0.26 0.075,-0.068 0.1,-0.176 0.066,-0.271 z M 27.062,8.922 26.977,8.74 c 0.029,0.022 0.047,0.039 0.082,0.062 z M 10.088,19.169 c 0.066,0.103 0.049,0.237 -0.04,0.319 l -0.403,0.371 c -0.047,0.043 -0.106,0.065 -0.17,0.065 -0.006,0 -0.013,0 -0.02,-0.001 C 9.387,19.918 9.322,19.884 9.279,19.83 8.976,19.452 8.949,19.429 8.888,19.429 8.849,19.429 8.8,19.433 8.742,19.439 8.62,19.45 8.508,19.373 8.476,19.252 8.326,18.67 8.361,18.451 8.873,18.3 L 8.972,18.277 C 9.033,18.26 9.097,18.269 9.152,18.3 l 0.527,0.291 c 0.035,0.02 0.065,0.049 0.088,0.083 z M 23.128,6.247 c -0.729,0.95 -1.806,1.651 -2.36,1.875 -0.002,0.104 -0.025,0.215 -0.104,0.308 -0.057,0.065 -0.16,0.145 -0.344,0.151 -0.002,0 -0.021,0 -0.023,0 -0.248,0 -0.416,-0.138 -0.539,-0.239 C 19.688,8.284 19.626,8.234 19.57,8.22 19.472,8.195 19.398,8.112 19.382,8.01 19.371,7.927 19.333,7.837 19.292,7.741 19.224,7.575 19.142,7.387 19.161,7.155 19.164,7.122 19.173,7.09 19.186,7.06 L 19.241,6.959 C 19.317,6.805 19.399,6.627 19.481,6.433 19.424,6.362 19.366,6.288 19.313,6.228 19.26,6.167 19.243,6.085 19.26,6.007 19.295,5.856 19.307,5.774 19.305,5.703 19.251,5.636 19.2,5.56 19.145,5.484 19.051,5.352 18.957,5.215 18.86,5.128 18.735,5.087 18.585,5.045 18.524,5.042 18.463,5.039 18.415,5.008 18.373,4.968 L 18.31,5.052 C 18.269,5.106 18.208,5.142 18.142,5.151 18.076,5.16 18.006,5.141 17.954,5.098 17.943,5.09 17.933,5.082 17.928,5.076 17.79,5.187 17.623,5.242 17.209,5.375 17.184,5.383 17.156,5.388 17.129,5.388 17.087,5.388 17.044,5.377 17.007,5.357 16.86,5.275 16.803,5.247 16.774,5.243 16.643,5.224 16.548,5.107 16.559,4.975 16.571,4.843 16.658,4.735 16.815,4.746 h 0.002 c 0.287,0 0.44,-0.079 0.881,-0.418 -0.09,-0.146 -0.133,-0.253 -0.16,-0.397 -0.014,-0.073 0.006,-0.149 0.054,-0.206 0.048,-0.057 0.118,-0.09 0.192,-0.09 0.058,0 0.167,-0.022 0.335,-0.062 0.183,-0.042 0.397,-0.092 0.56,-0.074 0.032,-0.02 0.068,-0.036 0.111,-0.047 0.188,-0.049 0.345,0.14 0.369,0.175 0.007,0.009 0.007,0.02 0.013,0.029 0.021,-0.011 0.033,-0.036 0.059,-0.04 0.026,-0.003 0.056,-0.004 0.08,0 0.012,-0.078 0.06,-0.163 0.127,-0.201 0.07,-0.04 0.16,-0.06 0.231,-0.026 0.211,0.102 0.325,0.143 0.378,0.16 0.004,-10e-4 0.042,0 0.094,0 0.041,0 0.092,-10e-4 0.145,-0.005 0.061,-0.004 0.109,0.005 0.152,0.016 0.021,-0.054 0.061,-0.105 0.113,-0.15 0.061,-0.052 0.141,-0.08 0.223,-0.08 0.02,0 0.099,0.012 0.117,0.016 0.014,-0.048 0.073,-0.104 0.164,-0.135 l 0.143,-0.043 c 0.061,-0.017 0.15,-0.018 0.207,0.012 l 0.361,0.186 c 0.053,0.026 0.092,0.069 0.113,0.121 0.078,-0.059 0.188,-0.067 0.271,-0.021 0.082,0.044 0.131,0.128 0.131,0.219 0.053,0.141 0.263,0.642 0.729,1.059 0.032,0.029 0.057,0.067 0.07,0.108 l 0.025,0.077 c 0.023,0.078 0.053,0.165 0.078,0.235 0.032,0.09 0.014,0.191 -0.056,0.26 -0.008,0.008 -0.017,0.016 -0.022,0.023 0.031,0.046 0.063,0.092 0.098,0.139 0.054,0.078 0.059,0.179 0.014,0.262 -0.021,0.036 -0.049,0.066 -0.082,0.088 0.012,0.014 0.021,0.028 0.028,0.044 0.039,0.086 0.025,0.19 -0.035,0.267 z m 1.534,0.537 c 0,0.003 0.002,0.062 0.002,0.064 0,0.382 -0.262,0.562 -1.002,0.685 -0.014,0.002 -0.027,0.003 -0.041,0.003 -0.051,0 -0.102,-0.016 -0.145,-0.045 L 23.388,7.428 C 23.284,7.356 23.17,7.276 23.078,7.214 23.011,7.167 22.97,7.088 22.97,7.004 22.972,6.92 23.015,6.842 23.083,6.797 23.261,6.683 23.435,6.615 23.681,6.563 23.967,6.51 24.185,6.506 24.449,6.546 c 0.119,0.017 0.209,0.118 0.213,0.238 z"
   id="path2"
   style="fill:#0000aa;opacity:0.893" />
</g>

<g
   aria-label="A"
   style="font-style:normal;font-variant:normal;font-weight:normal;font-stretch:normal;font-size:35.42114639px;line-height:125%;font-family:'Perfect Dark BRK';-inkscape-font-specification:'Perfect Dark BRK, Normal';font-variant-ligatures:normal;font-variant-caps:normal;font-variant-numeric:normal;font-feature-settings:normal;text-align:start;letter-spacing:0px;word-spacing:0px;writing-mode:lr-tb;text-anchor:start;fill:#ffe680;fill-opacity:1;stroke:#000000;stroke-width:0.88552868px;stroke-linecap:butt;stroke-linejoin:miter;stroke-opacity:1"
   id="text4812"><path
     d="M 12.655721,11.941561 H 5.2172799 L 0.400004,6.9826004 H 15.135201 L 39.930003,31.777403 h -7.43844 z m -6.198701,2.47948 v 17.356362 h 6.198701 v -6.198701 h 11.157661 l -4.958961,-4.95896 h -6.1987 v -6.198701 z"
     style="fill:#ffe680;stroke:#000000;stroke-width:0.88552868px;stroke-opacity:1"
     id="path4822" /></g></svg>