<?xml version="1.0" encoding="UTF-8" standalone="no"?>
<!-- Created with Inkscape (http://www.inkscape.org/) -->

<svg
   xmlns:dc="http://purl.org/dc/elements/1.1/"
   xmlns:cc="http://creativecommons.org/ns#"
   xmlns:rdf="http://www.w3.org/1999/02/22-rdf-syntax-ns#"
   xmlns:svg="http://www.w3.org/2000/svg"
   xmlns="http://www.w3.org/2000/svg"
   xmlns:xlink="http://www.w3.org/1999/xlink"
   xmlns:sodipodi="http://sodipodi.sourceforge.net/DTD/sodipodi-0.dtd"
   xmlns:inkscape="http://www.inkscape.org/namespaces/inkscape"
   width="210mm"
   height="297mm"
   viewBox="0 0 210 297"
   version="1.1"
   id="svg8"
   inkscape:version="0.92.3 (2405546, 2018-03-11)"
   sodipodi:docname="AurisLogo.svg">
  <defs
     id="defs2">
    <linearGradient
       inkscape:collect="always"
       id="linearGradient1932">
      <stop
         style="stop-color:#000000;stop-opacity:1;"
         offset="0"
         id="stop1928" />
      <stop
         style="stop-color:#000000;stop-opacity:0;"
         offset="1"
         id="stop1930" />
    </linearGradient>
    <linearGradient
       inkscape:collect="always"
       id="linearGradient1846">
      <stop
         style="stop-color:#f7f7ff;stop-opacity:1"
         offset="0"
         id="stop1842" />
      <stop
         id="stop1850"
         offset="0.55065376"
         style="stop-color:#000018;stop-opacity:1" />
      <stop
         style="stop-color:#f2f2ff;stop-opacity:1"
         offset="1"
         id="stop1844" />
    </linearGradient>
    <linearGradient
       inkscape:collect="always"
       id="linearGradient1826">
      <stop
         style="stop-color:#cdcdff;stop-opacity:1"
         offset="0"
         id="stop1822" />
      <stop
         id="stop1830"
         offset="0.46829939"
         style="stop-color:#5a5aff;stop-opacity:1" />
      <stop
         style="stop-color:#00003c;stop-opacity:1"
         offset="1"
         id="stop1824" />
    </linearGradient>
    <linearGradient
       inkscape:collect="always"
       id="linearGradient1814">
      <stop
         style="stop-color:#fefefe;stop-opacity:1"
         offset="0"
         id="stop1810" />
      <stop
         id="stop1820"
         offset="0.22741726"
         style="stop-color:#bdbdbd;stop-opacity:0.99607843" />
      <stop
         id="stop1818"
         offset="0.7347858"
         style="stop-color:#454545;stop-opacity:0.99607843" />
      <stop
         style="stop-color:#000000;stop-opacity:0.9948718"
         offset="1"
         id="stop1812" />
    </linearGradient>
    <radialGradient
       inkscape:collect="always"
       xlink:href="#linearGradient1814"
       id="radialGradient1816"
       cx="340.91592"
       cy="526.8241"
       fx="340.91592"
       fy="526.8241"
       r="169.50204"
       gradientUnits="userSpaceOnUse"
       gradientTransform="matrix(0.26317267,0,0,0.26317267,0.4809178,0.74317169)" />
    <radialGradient
       inkscape:collect="always"
       xlink:href="#linearGradient1826"
       id="radialGradient1828"
       cx="98.207359"
       cy="142.36276"
       fx="98.207359"
       fy="142.36276"
       r="27.993816"
       gradientUnits="userSpaceOnUse" />
    <linearGradient
       inkscape:collect="always"
       xlink:href="#linearGradient1846"
       id="linearGradient1848"
       x1="221.17383"
       y1="544.35156"
       x2="464.20525"
       y2="544.35156"
       gradientUnits="userSpaceOnUse"
       gradientTransform="scale(0.26458333)" />
    <linearGradient
       inkscape:collect="always"
       xlink:href="#linearGradient1932"
       id="linearGradient1934"
       x1="91.298294"
       y1="186.36275"
       x2="91.570885"
       y2="204.75914"
       gradientUnits="userSpaceOnUse" />
  </defs>
  <sodipodi:namedview
     id="base"
     pagecolor="#ffffff"
     bordercolor="#666666"
     borderopacity="1.0"
     inkscape:pageopacity="0.0"
     inkscape:pageshadow="2"
     inkscape:zoom="0.70710678"
     inkscape:cx="29.214533"
     inkscape:cy="494.68181"
     inkscape:document-units="mm"
     inkscape:current-layer="layer1"
     showgrid="false"
     showborder="false"
     inkscape:object-paths="true"
     inkscape:snap-grids="false"
     inkscape:window-width="1920"
     inkscape:window-height="1058"
     inkscape:window-x="1920"
     inkscape:window-y="0"
     inkscape:window-maximized="1" />
  <metadata
     id="metadata5">
    <rdf:RDF>
      <cc:Work
         rdf:about="">
        <dc:format>image/svg+xml</dc:format>
        <dc:type
           rdf:resource="http://purl.org/dc/dcmitype/StillImage" />
        <dc:title />
      </cc:Work>
    </rdf:RDF>
  </metadata>
  <g
     inkscape:label="Layer 1"
     inkscape:groupmode="layer"
     id="layer1">
    <g
       id="g1944"
       transform="matrix(1.2897219,0,0,1.2897219,-49.503259,-77.342272)"
       inkscape:export-xdpi="150"
       inkscape:export-ydpi="150">
      <rect
         y="97.504166"
         x="41.010418"
         height="109.27292"
         width="100.80625"
         id="rect1936"
         style="opacity:1;fill:#ffffff;fill-opacity:1;stroke:none;stroke-width:0.079375;stroke-linecap:round;stroke-miterlimit:4;stroke-dasharray:none;stroke-dashoffset:0;stroke-opacity:1" />
      <g
         id="text1096"
         style="font-style:normal;font-variant:normal;font-weight:normal;font-stretch:normal;font-size:13165.515625px;line-height:125%;font-family:Anklepants;-inkscape-font-specification:'Anklepants, Normal';font-variant-ligatures:normal;font-variant-caps:normal;font-variant-numeric:normal;font-feature-settings:normal;text-align:start;letter-spacing:0px;word-spacing:0px;writing-mode:lr-tb;text-anchor:start;fill:#000000;fill-opacity:1;stroke:none;stroke-width:448.82437134px;stroke-linecap:butt;stroke-linejoin:miter;stroke-opacity:1"
         transform="scale(0.99283421,1.0072175)"
         aria-label="A" />
      <circle
         r="27.943394"
         cy="146.86157"
         cx="90.644341"
         id="path1808"
         style="opacity:1;fill:url(#radialGradient1828);fill-opacity:1;stroke:#000000;stroke-width:0.10084432;stroke-linecap:round;stroke-miterlimit:4;stroke-dasharray:none;stroke-dashoffset:0;stroke-opacity:1" />
      <path
         id="path1789"
         d="m 104.6117,104.3249 -8.171076,4.15943 -2.198833,6.50142 a 32.093352,32.093352 0 0 0 -3.597196,-0.21756 32.093352,32.093352 0 0 0 -32.093648,32.09313 32.093352,32.093352 0 0 0 4.378028,16.10289 l -4.059184,2.27325 0.0093,8.1442 8.623763,-7.29361 c 0.859528,-0.47619 1.791708,-1.26396 2.796728,-2.36523 l 0.0072,-0.006 -0.0011,-5.3e-4 c 0.375703,-0.41203 0.761016,-0.86544 1.157033,-1.36477 2.265006,-2.88049 4.541999,-6.0683 6.831627,-9.56428 l 1.514117,-2.17868 c 2.461964,-3.74219 4.616186,-7.1519 6.462655,-10.22935 1.846471,-3.07745 3.717898,-6.38904 5.613611,-9.93427 1.92033,-3.56984 3.69261,-7.09077 5.317506,-10.56215 h 0.701765 c 0,-0.68934 0.320035,-1.37874 0.960149,-2.06809 0.514972,-0.55457 1.111099,-1.02792 1.785415,-1.42317 z m 5.53765,2.26446 -5.533,11.42411 c -0.006,0.63866 -0.0154,1.21852 -0.0284,1.72186 0,0.93555 -0.0122,1.96963 -0.0367,3.10213 0,5.17012 0.0982,10.18004 0.29507,15.03009 0.22158,4.82545 0.57887,10.10657 1.07125,15.84296 0.14772,1.47717 0.31981,2.89269 0.51677,4.24677 0.22158,1.35409 0.5049,2.79425 0.84956,4.32067 0.34468,1.5018 0.68938,2.83127 1.03404,3.98838 0.14773,0.4924 0.43103,0.899 0.84956,1.21905 l 2.53577,2.82309 -0.61495,0.35398 c -0.62061,0.29318 -1.2721,0.5643 -1.95802,0.8108 -1.55103,0.59088 -2.72049,0.88625 -3.50832,0.88625 h -0.48007 c -1.52642,0 -2.65862,-0.6768 -3.39721,-2.03088 -0.43452,-0.96558 -0.95319,-3.01133 -1.55339,-6.10712 l 2.49494,-2.23139 -3.415815,-4.29173 H 78.848417 l -4.671549,4.29173 1.16427,0.84904 c -0.584531,0.83039 -1.146816,1.6194 -1.662949,2.31924 -1.312119,1.80982 -2.866324,3.59888 -4.656563,5.36712 A 32.093352,32.093352 0 0 0 90.644595,178.95496 32.093352,32.093352 0 0 0 102.91,176.4869 l 0.80667,5.94847 10.18645,1.32292 8.86665,-5.73557 -4.00751,-3.8871 2.41691,-1.62212 -1.05834,-8.86354 -1.67948,-0.80305 a 32.093352,32.093352 0 0 0 4.29637,-15.98559 32.093352,32.093352 0 0 0 -7.63415,-20.7269 l 0.78393,-6.00842 z m -12.319664,18.35288 c -2.6343,5.39169 -5.366692,10.53748 -8.19795,15.43679 -2.806637,4.89929 -5.674908,9.56451 -8.604642,13.99604 1.378702,-0.66473 2.462104,-1.04616 3.24993,-1.14463 h 14.587225 c -0.68935,-9.23237 -1.034563,-18.25584 -1.034563,-27.06967 z"
         style="opacity:1;fill:url(#linearGradient1848);fill-opacity:1;stroke:#000000;stroke-width:0.06407556;stroke-linecap:round;stroke-miterlimit:4;stroke-dasharray:none;stroke-dashoffset:0;stroke-opacity:1"
         inkscape:connector-curvature="0" />
      <path
         id="path1774"
         d="m 90.644595,102.05889 a 44.8027,44.8027 0 0 0 -44.802948,44.80243 44.8027,44.8027 0 0 0 9.520348,27.58849 c 0.136652,0.007 0.273164,0.0165 0.410311,0.0165 2.234004,0 4.932106,-1.99367 8.09408,-5.98051 3.161972,-4.0212 6.341057,-8.47172 9.537401,-13.35216 l 2.113566,-3.04167 c 3.436929,-5.22414 6.444493,-9.98411 9.022188,-14.28027 2.577695,-4.29616 5.189778,-8.91922 7.836215,-13.8684 2.680803,-4.98354 5.154946,-9.89825 7.423319,-14.74432 h 0.979785 c 0,-0.96234 0.44688,-1.92483 1.34049,-2.88717 0.7189,-0.7742 1.55099,-1.43519 2.49235,-1.98695 a 44.8027,44.8027 0 0 0 -13.967105,-2.26601 z m 19.504755,4.53047 c -0.009,0.89157 -0.0212,1.70079 -0.0393,2.40347 0,1.30603 -0.0173,2.7495 -0.0517,4.33048 0,7.21755 0.13742,14.21196 0.41237,20.9827 0.30933,6.73638 0.80813,14.10843 1.49552,22.11648 0.20622,2.06215 0.44645,4.03853 0.7214,5.92884 0.30933,1.8903 0.70481,3.90077 1.18598,6.03167 0.48117,2.09653 0.96215,3.95227 1.44332,5.56762 0.20621,0.68739 0.60169,1.25491 1.18597,1.7017 0.61865,0.41244 1.28846,0.61857 2.01022,0.61857 1.99342,-1.13419 3.67763,-1.77041 5.0524,-1.90789 h 0.61857 c 0.51553,0.27495 0.7736,0.55032 0.7736,0.82527 0,0.20167 -0.0438,0.40915 -0.12661,0.62219 a 44.8027,44.8027 0 0 0 10.61589,-28.94914 44.8027,44.8027 0 0 0 -25.29768,-40.27196 z m -9.47384,9.67279 c -3.677518,7.52688 -7.492314,14.7101 -11.444782,21.54959 -3.918098,6.83949 -7.922241,13.35239 -12.012186,19.53886 1.924679,-0.92797 3.436858,-1.46088 4.536672,-1.59835 h 20.364136 c -0.96234,-12.88849 -1.44384,-25.48471 -1.44384,-37.78891 z m -26.498642,45.72796 c -2.783914,4.19305 -5.18986,7.6643 -7.217648,10.41384 -1.831734,2.52653 -4.001183,5.02407 -6.500379,7.49256 a 44.8027,44.8027 0 0 0 30.185754,11.76776 44.8027,44.8027 0 0 0 32.125175,-13.64155 c -0.14295,0.10274 -0.28432,0.20539 -0.44132,0.31006 -1.71846,1.13419 -3.67753,2.09667 -5.87716,2.88716 -2.16527,0.82487 -3.79807,1.23714 -4.89789,1.23714 h -0.67025 c -2.13089,0 -3.71178,-0.94517 -4.74286,-2.83549 -0.61865,-1.37476 -1.35768,-4.29579 -2.21692,-8.7638 -0.82486,-4.50238 -1.23713,-7.45854 -1.23713,-8.86768 z"
         style="opacity:1;fill:url(#radialGradient1816);fill-opacity:1;stroke:#000000;stroke-width:0.08945023;stroke-linecap:round;stroke-miterlimit:4;stroke-dasharray:none;stroke-dashoffset:0;stroke-opacity:1"
         inkscape:connector-curvature="0" />
      <path
         inkscape:connector-curvature="0"
         style="opacity:1;fill:url(#linearGradient1934);fill-opacity:1;stroke:none;stroke-width:0.08945023;stroke-linecap:round;stroke-miterlimit:4;stroke-dasharray:none;stroke-dashoffset:0;stroke-opacity:1"
         d="m 90.644597,281.3591 a 44.8027,44.8027 0 0 1 -44.802949,-44.80243 44.8027,44.8027 0 0 1 9.520348,-27.58849 c 0.136652,-0.007 0.273164,-0.0165 0.410311,-0.0165 2.234004,0 4.932106,1.99367 8.09408,5.98051 3.161973,4.0212 6.341058,8.47172 9.537402,13.35216 l 2.113566,3.04167 c 3.436929,5.22414 6.444493,9.98411 9.022188,14.28027 2.577695,4.29616 5.189778,8.91922 7.836215,13.8684 2.680803,4.98354 5.154946,9.89825 7.423321,14.74432 h 0.979781 c 0,0.96234 0.44688,1.92483 1.34049,2.88717 0.7189,0.7742 1.55099,1.43519 2.49235,1.98695 a 44.8027,44.8027 0 0 1 -13.967103,2.26601 z m 19.504753,-4.53047 c -0.009,-0.89157 -0.0212,-1.70079 -0.0393,-2.40347 0,-1.30603 -0.0173,-2.7495 -0.0517,-4.33048 0,-7.21755 0.13742,-14.21196 0.41237,-20.9827 0.30933,-6.73638 0.80813,-14.10843 1.49552,-22.11648 0.20622,-2.06215 0.44645,-4.03853 0.7214,-5.92884 0.30933,-1.8903 0.70481,-3.90077 1.18598,-6.03167 0.48117,-2.09653 0.96215,-3.95227 1.44332,-5.56762 0.20621,-0.68739 0.60169,-1.25491 1.18597,-1.7017 0.61865,-0.41244 1.28846,-0.61857 2.01022,-0.61857 1.99342,1.13419 3.67763,1.77041 5.0524,1.90789 h 0.61857 c 0.51553,-0.27495 0.7736,-0.55032 0.7736,-0.82527 0,-0.20167 -0.0438,-0.40915 -0.12661,-0.62219 a 44.8027,44.8027 0 0 1 10.61589,28.94914 44.8027,44.8027 0 0 1 -25.29768,40.27196 z m -9.47384,-9.67279 c -3.677516,-7.52688 -7.492312,-14.7101 -11.44478,-21.54959 -3.918098,-6.83949 -7.922241,-13.35239 -12.012186,-19.53886 1.924679,0.92797 3.436858,1.46088 4.536672,1.59835 h 20.364134 c -0.96234,12.88849 -1.44384,25.48471 -1.44384,37.78891 z M 74.17687,221.42788 c -2.783914,-4.19305 -5.18986,-7.6643 -7.217648,-10.41384 -1.831734,-2.52653 -4.001183,-5.02407 -6.500379,-7.49256 a 44.8027,44.8027 0 0 1 30.185754,-11.76776 44.8027,44.8027 0 0 1 32.125173,13.64155 c -0.14295,-0.10274 -0.28432,-0.20539 -0.44132,-0.31006 -1.71846,-1.13419 -3.67753,-2.09667 -5.87716,-2.88716 -2.16527,-0.82487 -3.79807,-1.23714 -4.89789,-1.23714 h -0.67025 c -2.13089,0 -3.71178,0.94517 -4.74286,2.83549 -0.61865,1.37476 -1.35768,4.29579 -2.21692,8.7638 -0.82486,4.50238 -1.23713,7.45854 -1.23713,8.86768 z"
         id="path1926" />
    </g>
  </g>
</svg>
