<?xml version="1.0" encoding="UTF-8" standalone="no"?>
<!-- Generator: Adobe Illustrator 16.0.0, SVG Export Plug-In . SVG Version: 6.00 Build 0)  -->

<svg
   xmlns:dc="http://purl.org/dc/elements/1.1/"
   xmlns:cc="http://creativecommons.org/ns#"
   xmlns:rdf="http://www.w3.org/1999/02/22-rdf-syntax-ns#"
   xmlns:svg="http://www.w3.org/2000/svg"
   xmlns="http://www.w3.org/2000/svg"
   xmlns:sodipodi="http://sodipodi.sourceforge.net/DTD/sodipodi-0.dtd"
   xmlns:inkscape="http://www.inkscape.org/namespaces/inkscape"
   version="1.1"
   id="Capa_1"
   x="0px"
   y="0px"
   width="36.5px"
   height="36.5px"
   viewBox="0 0 36.5 36.5"
   style="enable-background:new 0 0 36.5 36.5;"
   xml:space="preserve"
   sodipodi:docname="planet-earth.svg"
   inkscape:version="0.92.3 (2405546, 2018-03-11)"><metadata
   id="metadata41"><rdf:RDF><cc:Work
       rdf:about=""><dc:format>image/svg+xml</dc:format><dc:type
         rdf:resource="http://purl.org/dc/dcmitype/StillImage" /></cc:Work></rdf:RDF></metadata><defs
   id="defs39" /><sodipodi:namedview
   pagecolor="#ffffff"
   bordercolor="#666666"
   borderopacity="1"
   objecttolerance="10"
   gridtolerance="10"
   guidetolerance="10"
   inkscape:pageopacity="0"
   inkscape:pageshadow="2"
   inkscape:window-width="1920"
   inkscape:window-height="1051"
   id="namedview37"
   showgrid="false"
   inkscape:zoom="10.958904"
   inkscape:cx="28.284758"
   inkscape:cy="32.925595"
   inkscape:window-x="1920"
   inkscape:window-y="0"
   inkscape:window-maximized="1"
   inkscape:current-layer="Capa_1" />
<g
   id="g4">
	<path
   d="M18.25,0C8.188,0,0,8.187,0,18.25C0,28.312,8.188,36.5,18.25,36.5c10.062,0,18.25-8.188,18.25-18.25   C36.5,8.187,28.312,0,18.25,0z M28.064,6.988c0.043,0.036,0.095,0.062,0.15,0.062c0.033,0,0.066-0.006,0.1-0.02   c0.127-0.051,0.187-0.199,0.138-0.326c-0.071-0.185-0.183-0.382-0.29-0.579c0.013-0.002,0.025-0.002,0.039-0.005   c0.016-0.004,0.029-0.009,0.045-0.016c0.352,0.678,0.518,1.007,0.6,1.21c-0.002-0.001-0.004-0.001-0.006-0.002   c-0.066-0.033-0.145-0.035-0.214-0.004c-0.067,0.03-0.118,0.089-0.138,0.16c-0.077-0.072-0.188-0.189-0.367-0.389   c-0.021-0.023-0.047-0.042-0.074-0.056C28.055,7.012,28.059,7,28.064,6.988z M7.197,5.972C7.256,5.98,7.312,5.966,7.361,5.934   c0.025-0.016,0.055-0.029,0.087-0.039c0.01,0.052,0.036,0.1,0.077,0.138C7.56,6.066,7.605,6.087,7.65,6.095   C7.63,6.117,7.611,6.141,7.588,6.166C7.533,6.229,7.514,6.314,7.533,6.395c0.021,0.081,0.082,0.146,0.16,0.172l0.012,0.004   c-2.258,2.06-3.291,3.003-3.832,3.537C4.743,8.576,5.859,7.177,7.197,5.972z M1.718,18.25c0-1.144,0.12-2.275,0.353-3.378   c0.043,0.034,0.097,0.053,0.152,0.053h0.174c0.008,0,0.016,0,0.021,0c-0.089,0.359-0.167,0.678-0.236,0.999   c-0.006,0.026-0.004,0.086,0,0.112c0.049,0.472,0.116,1.118,0.199,1.597c0.012,0.07,0.053,0.131,0.113,0.169   c2.271,1.433,3.451,4.015,3.689,4.58c-0.695,1.138-0.938,2.06-0.74,2.819c0.22,0.851,0.939,1.29,1.508,1.605   c0.057,0.225,0.117,0.444,0.184,0.663c0.012,0.038,0.031,0.073,0.059,0.104c0.016,0.015,1.416,1.462,2.748,1.923   c0.427,1.98,1.576,3.508,3.422,4.538c0.006,0.005,0.011,0.011,0.016,0.016C6.507,31.947,1.718,25.615,1.718,18.25z M32.941,24.971   c-0.102,0.354-0.217,0.717-0.336,1.06c-0.396,0.629-0.719,1.303-1.031,1.954l-0.042,0.098c-3.115,4.195-8.081,6.702-13.282,6.702   c-0.714,0-1.436-0.048-2.146-0.142c-0.008-0.039-0.027-0.078-0.058-0.108l-0.085-0.103c-0.021-0.026-0.051-0.051-0.083-0.065   l-0.285-0.142c-0.185-0.272-0.183-0.285-0.141-0.48c0-0.003,0.001-0.008,0.002-0.012c0.007,0,0.014,0,0.021,0l0.172,0.002   c0.06,0,0.176-0.045,0.222-0.125s0.045-0.176-0.001-0.254c-0.006-0.01-0.012-0.02-0.018-0.027c0.023-0.01,0.049-0.018,0.074-0.023   c0.225-0.072,0.457-0.148,0.672-0.289c0.059,0.016,0.117,0.031,0.166,0.045c0.074,0.021,0.154,0.004,0.215-0.041l0.287-0.215   c0.063-0.047,0.1-0.119,0.102-0.195c0.011-0.66,0.013-0.781-0.075-1.092c1.812-1.103,2.047-1.273,1.729-2.065   c1.086-1.187,1.131-1.261,1.181-2.101c0.006-0.1,0.011-0.225,0.013-0.317c0.003-0.136-0.104-0.25-0.238-0.255   c-0.107-0.004-2.643-0.123-4.165-1.579c-0.052-0.048-0.113-0.078-0.195-0.068c-0.228,0.019-0.594,0.046-1.147,0.435l-0.091-0.062   l0.189-0.201c0.072-0.076,0.09-0.189,0.041-0.283c-0.64-1.268-0.834-1.404-1.465-1.488c-0.771-0.105-0.771-0.105-0.998-0.844   c-0.013-0.039-0.033-0.074-0.062-0.104l-0.222-0.229c-0.639-0.621-1.412-0.922-2.23-1.239c-0.037-0.015-0.075-0.019-0.116-0.017   l-0.442,0.045c-0.411-0.246-0.606-0.367-0.996-0.612c-0.098-0.063-0.225-0.05-0.309,0.03c-0.255,0.248-0.371,0.297-0.478,0.297   c-0.228,0-0.611-0.254-1.24-0.676c-0.123-0.291-0.514-0.799-1.069-1.158l-0.065-0.161c0.026-0.239,0.057-0.478,0.091-0.712   c0.244-0.292,0.307-0.418,0.406-0.792c0.02-0.071,0.006-0.147-0.036-0.208s-0.108-0.1-0.183-0.106   c-0.404-0.033-0.67,0.136-0.987,0.488c-0.06-0.027-0.117-0.054-0.175-0.082c-0.055-0.246-0.162-0.848-0.096-1.488   c0.23-0.129,0.316-0.274,0.75-1.084c0.791,0.028,0.819,0.049,1.328,0.397c0.077,0.053,0.176,0.06,0.26,0.014   c0.069-0.037,0.148-0.081,0.233-0.128l0.063,0.203c0.029,0.098,0.117,0.167,0.22,0.175c0.116,0.01,0.188,0.013,0.271,0.002   c-0.018,0.3,0.008,0.596,0.03,0.884c0.022,0.279,0.044,0.542,0.031,0.805c-0.005,0.099,0.05,0.192,0.139,0.236   c0.04,0.02,0.084,0.024,0.127,0.022c-0.047,0.011-0.096,0.018-0.147,0.041c-0.149-0.357-0.428-0.437-0.604-0.438   c-0.22-0.004-0.35-0.017-0.556-0.047c-0.1-0.014-0.195,0.029-0.248,0.113c-0.053,0.083-0.053,0.19,0.003,0.273   c0.127,0.19,0.377,0.467,1.086,0.672h0.001c0.264,0.448,0.37,0.49,1.014,0.644c0.019,0.004,0.037,0.007,0.058,0.007   c0.061,0,0.12-0.021,0.167-0.062l0.174-0.155c0.062-0.058,0.1-0.142,0.085-0.226c-0.015-0.086-0.065-0.154-0.146-0.188   c-0.021-0.014-0.072-0.066-0.207-0.242c-0.188-0.253-0.313-0.42-0.557-0.42c-0.025,0-0.055,0.015-0.08,0.019   c0.036-0.008,0.073-0.019,0.104-0.044l0.794-0.666c0.086-0.072,0.113-0.193,0.066-0.295l-0.211-0.462   c0.035-0.121,0.068-0.224,0.118-0.342c0.031-0.007,0.062-0.02,0.089-0.038c0.156-0.108,0.332-0.188,0.52-0.273   c0.165-0.075,0.336-0.152,0.5-0.253c0.224,0.005,0.414,0.041,0.627,0.08c0.091,0.018,0.181-0.016,0.238-0.086   c0.689-0.836,0.728-0.881,0.91-1.061c1.172-0.518,1.209-0.528,4.346-1.385c0.109-0.03,0.187-0.133,0.184-0.249   c-0.004-0.115-0.085-0.213-0.197-0.237c-0.138-0.029-0.188-0.04-0.252-0.098l0.229-0.249c0.06-0.064,0.082-0.155,0.058-0.239   c0-0.002-0.001-0.004-0.001-0.006c0.12-0.005,0.253-0.007,0.394-0.006c0.018,0.047,0.046,0.091,0.092,0.121   c0.293,0.24,0.458,0.424,0.48,0.479c0.034,0.078,0.107,0.137,0.191,0.15c0.016,0.002,0.027,0.003,0.043,0.003   c0.068,0,0.139-0.028,0.186-0.081l0.373-0.42c0.062-0.068,0.08-0.163,0.051-0.248c-0.029-0.085-0.104-0.148-0.192-0.165   l-0.108-0.02c0.203-0.145,0.498-0.394,1.021-0.838c0.083-0.07,0.111-0.184,0.07-0.284s-0.146-0.167-0.248-0.156   c-0.178,0.011-0.301,0.027-0.432,0.062l0.002-0.001c0.033-0.073,0.03-0.157-0.009-0.227l-0.2-0.371   c0.045-0.131,0.063-0.167,0.172-0.367c0.032-0.06,0.039-0.13,0.02-0.195c-0.021-0.064-0.066-0.118-0.127-0.148   c-0.333-0.165-0.624-0.209-1.049-0.134c-0.452-0.763-0.514-0.833-0.879-0.9c-0.071-0.012-0.146,0.006-0.201,0.051   c-0.057,0.045-0.092,0.113-0.094,0.185c-0.004,0.074-0.006,0.158-0.01,0.242l-0.265-0.024c-0.083-0.012-0.16,0.024-0.213,0.084   c-0.335,0.384-0.714,0.745-1.078,1.094c-0.276,0.264-0.56,0.535-0.829,0.82c-0.178-0.408-0.314-1.088-0.361-1.522l1.099-0.564   c1.017-0.641,1.438-0.906,1.673-0.906c0.083,0,0.182,0.039,0.324,0.104c-0.029,0.042-0.053,0.09-0.053,0.146   c0.004,0.127,0.102,0.232,0.229,0.244c0.188,0.017,0.386,0.032,0.585,0.046l0.22,0.417c0.045,0.083,0.129,0.134,0.223,0.134   c0.105-0.007,0.182-0.053,0.224-0.138c0.306-0.61,0.479-0.641,0.513-0.641c0.098,0,0.258,0.166,0.318,0.228   c0.047,0.048,0.113,0.073,0.181,0.073c0.072-0.012,0.138-0.031,0.185-0.081c0.103-0.107,0.312-0.33,0.363-0.672l0.008-0.083   c0.01-0.085-0.019-0.17-0.086-0.223c-0.041-0.033-0.088-0.051-0.139-0.054c-0.007-0.086,0-0.21,0.003-0.26   c0.005-0.086-0.034-0.168-0.104-0.218c-0.186-0.131-0.184-0.172-0.18-0.235c0.006-0.132-0.093-0.245-0.224-0.259   c-0.021-0.002-0.088-0.02-0.293-0.108c-0.136-0.06-0.235-0.092-0.321-0.104l-0.068-0.146c-0.03-0.066-0.09-0.116-0.159-0.135   c-0.065-0.018-0.142-0.008-0.201,0.03c-0.005-0.006-0.01-0.011-0.015-0.017c-0.068-0.069-0.18-0.09-0.271-0.058   c-0.143,0.049-0.227,0.081-0.298,0.114c-0.002-0.075,0.002-0.141-0.004-0.224c-0.004-0.058-0.03-0.106-0.067-0.143   c0.024-0.02,0.047-0.028,0.072-0.05c0.05-0.044,0.08-0.106,0.085-0.172c0.005-0.084,0.009-0.198,0.011-0.284   c0.002-0.087-0.05-0.164-0.121-0.211c-0.002,0-0.002,0-0.004,0c0.039-0.026,0.084-0.06,0.161-0.122   c0.142-0.111,0.153-0.187,0.201-0.468c0.017-0.096-0.042-0.181-0.122-0.236c-0.08-0.056-0.204-0.048-0.287,0.002   c-0.584,0.345-0.584,0.345-0.688,0.384c-0.12,0.044-0.188,0.173-0.155,0.297c0.032,0.125,0.147,0.203,0.281,0.184   c0.099-0.016,0.167-0.026,0.222-0.036c0.012,0.013,0.028,0.021,0.042,0.03C15.609,4.4,15.528,4.44,15.528,4.44   c-0.049,0.025-0.101,0.089-0.123,0.139c-0.014,0.029-0.034,0.06-0.051,0.09C15.301,4.631,15.245,4.6,15.18,4.606   c0.029-0.063,0.023-0.139-0.003-0.207c-0.036-0.087-0.127-0.149-0.216-0.162c-0.061-0.009-0.122-0.01-0.184-0.01   c-0.002,0-0.002,0-0.004,0c-0.021,0-0.041,0-0.061,0c-0.068-0.065-0.168-0.091-0.266-0.054c-0.297,0.115-0.422,0.171-0.534,0.24   c-0.095,0.057-0.14,0.169-0.11,0.275l0.019,0.072c0.022,0.088,0.091,0.155,0.176,0.179l0,0c0.004,0.032,0.022,0.058,0.038,0.085   c-0.036,0.01-0.07,0.02-0.115,0.036l-0.068-0.062c-0.01-0.179-0.049-0.256-0.218-0.41c-0.081-0.075-0.2-0.082-0.296-0.024   c-0.068,0.041-0.111,0.115-0.119,0.193c-0.005,0.015-0.033,0.052-0.051,0.075c-0.059,0.077-0.139,0.182-0.15,0.342   c-0.004,0.073,0.006,0.137,0.016,0.188c0.004,0.024,0.011,0.061,0.007,0.077c-0.001,0.004-0.002,0.008-0.003,0.012   c-0.096,0.021-0.208,0.053-0.295,0.091c-0.062,0.028-0.113,0.082-0.137,0.147c-0.021,0.066-0.017,0.138,0.017,0.199   c0.063,0.122,0.16,0.216,0.272,0.288L12.776,6.23c-0.02-0.012-0.041-0.021-0.062-0.027c-0.045-0.012-0.097-0.024-0.148-0.036   L12.543,5.98c-0.011-0.081-0.061-0.15-0.132-0.188c-0.042-0.022-0.091-0.034-0.136-0.028c-0.022-0.017-0.051-0.029-0.078-0.037   c-0.022-0.006-0.045-0.012-0.067-0.019l0.027-0.069c0.024-0.064,0.022-0.136-0.007-0.198c-0.028-0.062-0.082-0.11-0.147-0.131   c-0.142-0.046-0.274-0.095-0.403-0.143c-0.058-0.022-0.121-0.022-0.182,0.002c-0.135,0.054-0.223,0.083-0.289,0.095l0.109-0.163   c0.046-0.066,0.056-0.151,0.027-0.228c-0.027-0.076-0.092-0.134-0.17-0.155c-0.142-0.038-0.287-0.076-0.572-0.037   c-0.006-0.024-0.016-0.047-0.027-0.069c0.046-0.072,0.052-0.164,0.015-0.241c-0.02-0.042-0.05-0.076-0.087-0.101   c0.02-0.073,0.004-0.153-0.046-0.216c-0.077-0.097-0.214-0.124-0.317-0.063c-0.192,0.108-0.229,0.128-0.58,0.297   c-0.01-0.006-0.02-0.011-0.029-0.015c2.637-1.673,5.65-2.55,8.808-2.55c2.971,0,5.869,0.798,8.415,2.313   c-0.047,0.027-0.062,0.03-0.079,0.03c-0.092,0-0.314-0.08-0.688-0.212c-0.087-0.031-0.187-0.011-0.255,0.051   c-0.084,0.078-0.185,0.15-0.305,0.221c-0.062,0.038-0.104,0.104-0.117,0.177c-0.013,0.073,0.013,0.151,0.061,0.207   c0.646,0.75,0.725,0.842,1.021,1.388c-0.098,0.515,0.045,0.629,0.852,1.283c0.088,0.071,0.232,0.059,0.324-0.006l0.097-0.072   c0.036,0.021,0.078,0.032,0.121,0.032h0.021C27.713,7.16,27.706,7.188,27.7,7.218c-0.032,0.239,0.005,0.309,0.358,0.742   c-0.011,0.013-0.021,0.024-0.033,0.033c-0.06,0.047-0.094,0.119-0.094,0.195l0.002,0.18c-0.24-0.089-0.291-0.118-0.488-0.227   c-0.053-0.042-0.062-0.056-0.072-0.071l-0.416-0.575c-0.078-0.104-0.225-0.131-0.332-0.062c-0.1,0.062-0.218,0.158-0.307,0.245   C26.254,7.74,26.23,7.827,26.25,7.911c0.023,0.105,0.064,0.22,0.186,0.364c-0.201,0.105-0.326,0.338-0.435,0.574   c-0.033,0.073-0.004,0.201,0.034,0.271l0.242-0.08l-0.195,0.161c0,0.001,0.048,0.092,0.049,0.093l0.242-0.078l-0.196,0.159   c0,0,0.046,0.086,0.048,0.086c0,0,0.047,0.091,0.047,0.092l0.098-0.03c-0.003,0.025-0.006,0.05-0.008,0.075l-0.045,0.036   c0,0.001,0.047,0.091,0.047,0.093l0.023,0.044c0.045,0.083,0.131,0.133,0.221,0.133c0.02,0,0.037-0.002,0.056-0.006   c0.108-0.024,0.188-0.119,0.194-0.231c0.016-0.257,0.066-0.274,0.115-0.289c0.049-0.016,0.08-0.06,0.109-0.1L27.083,9.3   c0.002,0.067,0.03,0.13,0.079,0.176c0.039,0.038,0.084,0.082,0.128,0.126c-0.011,0.063,0.003,0.128,0.039,0.182   c0.04,0.06,0.104,0.1,0.177,0.108c0.124,0.015,0.141,0.017,0.646,0.79c-0.182,0.029-0.496,0.061-1.066,0.094   c-0.083,0.005-0.158,0.051-0.199,0.122c-0.044,0.071-0.048,0.159-0.012,0.234c0.109,0.232,0.23,0.457,0.354,0.682   c0.09,0.164,0.18,0.327,0.264,0.494c-0.059,0.068-0.074,0.162-0.044,0.246l0.125,0.359c0.003,0.006,0.04,0.11,0.045,0.116   c0.021,0.062,0.065,0.115,0.127,0.145c0.062,0.03,0.129,0.033,0.19,0.011c1.109-0.388,1.157-0.406,1.719-0.652   c0.125-0.055,0.184-0.201,0.131-0.327c-0.092-0.21-0.184-0.419-0.278-0.625c0.153-0.213,0.191-0.456,0.228-0.674   c0.027-0.179,0.054-0.337,0.135-0.456c0.048-0.019,0.094-0.038,0.14-0.057c0.57,0.583,0.767,0.763,1.078,0.763   c0.071,0,0.142-0.012,0.212-0.031c0.061,0.09,0.102,0.142,0.232,0.31c0.08,0.102,0.221,0.12,0.33,0.05   c0.106-0.07,0.143-0.217,0.082-0.332c-0.037-0.072-0.072-0.139-0.114-0.213c0.163,0.131,0.351,0.283,0.567,0.458   c0.067,0.055,0.162,0.07,0.248,0.039c0.084-0.033,0.144-0.108,0.154-0.197c0.012-0.066,0.014-0.128,0.012-0.188   c0.008,0.006,0.014,0.012,0.021,0.018c0.078,0.062,0.188,0.072,0.274,0.024c0.016-0.007,0.025-0.016,0.037-0.024   c0.133,0.277,0.26,0.559,0.379,0.845c-0.142,0.059-0.377,0.155-0.771,0.316c-0.101,0.041-0.162,0.14-0.153,0.248   c0.008,0.132,0.008,0.198-0.035,0.358c-0.304-0.16-0.75-0.548-1.092-0.907c-0.078-0.084-0.214-0.101-0.311-0.042   c-0.393,0.223-1.203,0.687-2.373,1.006c-0.085,0.023-0.15,0.09-0.176,0.176c-0.014,0.052-0.012,0.106,0.009,0.154   c-0.019,0.004-0.037,0.01-0.039,0.01l0.01,0.256l-0.11-0.231c-0.08,0.019-0.15,0.088-0.182,0.165   c-0.494,1.268-0.92,2.363-2.292,4.319c-0.073,0.106-0.055,0.251,0.044,0.335l0.369,0.31c0.227,1.631,0.223,1.641-0.016,2.155   c-0.047,0.101-0.021,0.218,0.062,0.291c2.291,2.046,2.291,2.046,2.838,2.207c0.105,0.03,0.223-0.013,0.281-0.106l0.26-0.41   c0.654-0.154,1.276-0.327,1.854-0.516c0.471-0.148,0.843-0.267,1.067-0.267c0.125,0,0.157,0.036,0.174,0.054   C33.171,22.053,33.064,23.361,32.941,24.971z M10.619,11.552c-0.032-0.104-0.157-0.175-0.268-0.175l-0.211-0.006   c-0.029,0-0.062,0.001-0.097,0.003c0.017-0.033,0.022-0.069,0.022-0.106c0-0.087-0.045-0.167-0.119-0.213   c-0.061-0.037-0.115-0.082-0.172-0.126c-0.033-0.027-0.068-0.054-0.104-0.082c0.279-0.219,0.37-0.161,0.802-0.014   c0.123,0.458,0.248,0.816,0.496,1.078c-0.096,0.061-0.188,0.126-0.277,0.191c-0.203,0.146-0.389,0.277-0.592,0.343   c0.057-0.119,0.106-0.249,0.131-0.395l0.318-0.218C10.641,11.77,10.65,11.657,10.619,11.552z M13.689,6.277   c0.313-0.07,0.649-0.246,0.986-0.521l0.098-0.079c0.025-0.021,0.039-0.05,0.055-0.078c-0.456,0.841-0.502,0.852-0.764,0.852   c-0.03,0-0.062-0.001-0.096-0.002c-0.033-0.094-0.117-0.159-0.217-0.167C13.727,6.281,13.711,6.279,13.689,6.277z M14.855,5.55   c0.006-0.025,0.004-0.052,0.002-0.079l0,0c0.014,0.002,0.024,0.003,0.037,0.003C14.882,5.501,14.869,5.525,14.855,5.55z    M15.508,5.944l0.006,0.035c0.02,0.11,0.107,0.194,0.219,0.207c0.01,0.001,0.02,0.002,0.029,0.002c0.032,0,0.062-0.015,0.09-0.027   c0.01,0.02,0.016,0.03,0.027,0.054c-0.001,0-0.002,0-0.003,0c-0.179,0.085-0.289,0.131-0.383,0.163   c-0.022-0.132-0.019-0.275-0.013-0.432c0.006-0.155,0.011-0.31-0.01-0.464c-0.012-0.09-0.123-0.188-0.207-0.222   c-0.025-0.009-0.05,0.001-0.074-0.001c0.023-0.028,0.047-0.057,0.069-0.086c0.04,0.042,0.087,0.074,0.146,0.082   c0.012,0.001,0.063,0.005,0.074,0.005c0.017,0,0.035-0.011,0.051-0.012C15.484,5.394,15.463,5.598,15.508,5.944z M16.337,6.683   l-0.118-0.327c-0.004-0.011-0.018-0.014-0.021-0.023c0.006-0.002,0.012,0.001,0.017-0.001c0.017-0.008,0.052-0.021,0.113-0.021   c0.144,0,0.278,0.063,0.346,0.126c-0.228,0.281-0.372,0.484-0.534,0.75c-0.056,0.005-0.104,0.018-0.156,0.027   c0.1-0.091,0.201-0.182,0.287-0.26C16.346,6.886,16.371,6.778,16.337,6.683z M27.062,8.922L26.977,8.74   c0.029,0.022,0.047,0.039,0.082,0.062L27.062,8.922z M10.088,19.169c0.066,0.103,0.049,0.237-0.04,0.319l-0.403,0.371   c-0.047,0.043-0.106,0.065-0.17,0.065c-0.006,0-0.013,0-0.02-0.001c-0.068-0.005-0.133-0.039-0.176-0.093   c-0.303-0.378-0.33-0.401-0.391-0.401c-0.039,0-0.088,0.004-0.146,0.01c-0.122,0.011-0.234-0.066-0.266-0.187   c-0.15-0.582-0.115-0.801,0.397-0.952l0.099-0.023c0.061-0.017,0.125-0.008,0.18,0.023l0.527,0.291   c0.035,0.02,0.065,0.049,0.088,0.083L10.088,19.169z M23.128,6.247c-0.729,0.95-1.806,1.651-2.36,1.875   c-0.002,0.104-0.025,0.215-0.104,0.308c-0.057,0.065-0.16,0.145-0.344,0.151c-0.002,0-0.021,0-0.023,0   c-0.248,0-0.416-0.138-0.539-0.239c-0.07-0.058-0.132-0.108-0.188-0.122c-0.098-0.025-0.172-0.108-0.188-0.21   c-0.011-0.083-0.049-0.173-0.09-0.269c-0.068-0.166-0.15-0.354-0.131-0.586c0.003-0.033,0.012-0.065,0.025-0.095l0.055-0.101   c0.076-0.154,0.158-0.332,0.24-0.526c-0.057-0.071-0.115-0.145-0.168-0.205c-0.053-0.061-0.07-0.143-0.053-0.221   c0.035-0.151,0.047-0.233,0.045-0.304c-0.054-0.067-0.105-0.143-0.16-0.219c-0.094-0.132-0.188-0.269-0.285-0.356   c-0.125-0.041-0.275-0.083-0.336-0.086s-0.109-0.034-0.151-0.074l-0.063,0.084c-0.041,0.054-0.102,0.09-0.168,0.099   c-0.066,0.009-0.136-0.01-0.188-0.053c-0.011-0.008-0.021-0.016-0.026-0.022c-0.138,0.111-0.305,0.166-0.719,0.299   c-0.025,0.008-0.053,0.013-0.08,0.013c-0.042,0-0.085-0.011-0.122-0.031c-0.147-0.082-0.204-0.11-0.233-0.114   c-0.131-0.019-0.226-0.136-0.215-0.268c0.012-0.132,0.099-0.24,0.256-0.229h0.002c0.287,0,0.44-0.079,0.881-0.418   c-0.09-0.146-0.133-0.253-0.16-0.397c-0.014-0.073,0.006-0.149,0.054-0.206c0.048-0.057,0.118-0.09,0.192-0.09   c0.058,0,0.167-0.022,0.335-0.062c0.183-0.042,0.397-0.092,0.56-0.074c0.032-0.02,0.068-0.036,0.111-0.047   c0.188-0.049,0.345,0.14,0.369,0.175c0.007,0.009,0.007,0.02,0.013,0.029c0.021-0.011,0.033-0.036,0.059-0.04   c0.026-0.003,0.056-0.004,0.08,0c0.012-0.078,0.06-0.163,0.127-0.201c0.07-0.04,0.16-0.06,0.231-0.026   c0.211,0.102,0.325,0.143,0.378,0.16c0.004-0.001,0.042,0,0.094,0c0.041,0,0.092-0.001,0.145-0.005   c0.061-0.004,0.109,0.005,0.152,0.016c0.021-0.054,0.061-0.105,0.113-0.15c0.061-0.052,0.141-0.08,0.223-0.08   c0.02,0,0.099,0.012,0.117,0.016c0.014-0.048,0.073-0.104,0.164-0.135l0.143-0.043c0.061-0.017,0.15-0.018,0.207,0.012l0.361,0.186   c0.053,0.026,0.092,0.069,0.113,0.121c0.078-0.059,0.188-0.067,0.271-0.021c0.082,0.044,0.131,0.128,0.131,0.219   c0.053,0.141,0.263,0.642,0.729,1.059c0.032,0.029,0.057,0.067,0.07,0.108l0.025,0.077c0.023,0.078,0.053,0.165,0.078,0.235   c0.032,0.09,0.014,0.191-0.056,0.26c-0.008,0.008-0.017,0.016-0.022,0.023c0.031,0.046,0.063,0.092,0.098,0.139   c0.054,0.078,0.059,0.179,0.014,0.262c-0.021,0.036-0.049,0.066-0.082,0.088c0.012,0.014,0.021,0.028,0.028,0.044   C23.202,6.066,23.188,6.17,23.128,6.247z M24.662,6.784c0,0.003,0.002,0.062,0.002,0.064c0,0.382-0.262,0.562-1.002,0.685   c-0.014,0.002-0.027,0.003-0.041,0.003c-0.051,0-0.102-0.016-0.145-0.045l-0.088-0.063c-0.104-0.072-0.218-0.152-0.31-0.214   c-0.067-0.047-0.108-0.126-0.108-0.21c0.002-0.084,0.045-0.162,0.113-0.207c0.178-0.114,0.352-0.182,0.598-0.234   c0.286-0.053,0.504-0.057,0.768-0.017C24.568,6.563,24.658,6.664,24.662,6.784z"
   id="path2" />
</g>
<g
   id="g6">
</g>
<g
   id="g8">
</g>
<g
   id="g10">
</g>
<g
   id="g12">
</g>
<g
   id="g14">
</g>
<g
   id="g16">
</g>
<g
   id="g18">
</g>
<g
   id="g20">
</g>
<g
   id="g22">
</g>
<g
   id="g24">
</g>
<g
   id="g26">
</g>
<g
   id="g28">
</g>
<g
   id="g30">
</g>
<g
   id="g32">
</g>
<g
   id="g34">
</g>
<text
   xml:space="preserve"
   style="font-style:normal;font-weight:normal;font-size:40px;line-height:125%;font-family:'18 Holes BRK';letter-spacing:0px;word-spacing:0px;fill:#000000;fill-opacity:1;stroke:none;stroke-width:1px;stroke-linecap:butt;stroke-linejoin:miter;stroke-opacity:1;-inkscape-font-specification:'18 Holes BRK, Normal';font-stretch:normal;font-variant:normal;text-anchor:start;text-align:start;writing-mode:lr;font-variant-ligatures:normal;font-variant-caps:normal;font-variant-numeric:normal;font-feature-settings:normal;"
   x="38.598751"
   y="0.95812559"
   id="text3748"><tspan
     sodipodi:role="line"
     id="tspan3746"
     x="38.598751"
     y="0.95812559">A</tspan></text>
</svg>