<?xml version="1.0" encoding="UTF-8" standalone="no"?>
<!DOCTYPE svg PUBLIC "-//W3C//DTD SVG 1.1//EN"
 "http://www.w3.org/Graphics/SVG/1.1/DTD/svg11.dtd">
<!-- Generated by graphviz version 2.43.0 (0)
 -->
<!-- Title: AurisDependencies Pages: 1 -->
<svg width="828pt" height="427pt"
 viewBox="0.00 0.00 827.67 427.00" xmlns="http://www.w3.org/2000/svg" xmlns:xlink="http://www.w3.org/1999/xlink">
<g id="graph0" class="graph" transform="scale(1 1) rotate(0) translate(4 423)">
<title>AurisDependencies</title>
<polygon fill="white" stroke="transparent" points="-4,4 -4,-423 823.67,-423 823.67,4 -4,4"/>
<text text-anchor="middle" x="409.84" y="-7.8" font-family="Times,serif" font-size="14.00">AURIS Dependency Graph</text>
<!-- n0 -->
<g id="node1" class="node">
<title>n0</title>
<ellipse fill="none" stroke="black" cx="605.67" cy="-113" rx="110.48" ry="18"/>
<text text-anchor="middle" x="605.67" y="-109.3" font-family="Times,serif" font-size="14.00">auris&#45;control&#45;displays</text>
</g>
<!-- n7 -->
<g id="node8" class="node">
<title>n7</title>
<ellipse fill="none" stroke="black" cx="477.67" cy="-257" rx="101.28" ry="18"/>
<text text-anchor="middle" x="477.67" y="-253.3" font-family="Times,serif" font-size="14.00">esa&#45;space&#45;protocols</text>
</g>
<!-- n0&#45;&gt;n7 -->
<g id="edge10" class="edge">
<title>n0&#45;&gt;n7</title>
<path fill="none" stroke="black" d="M590.63,-131.15C574.81,-149.14 549.14,-178.2 526.67,-203 518.21,-212.34 508.84,-222.52 500.57,-231.43"/>
<polygon fill="black" stroke="black" points="497.89,-229.19 493.65,-238.9 503.02,-233.95 497.89,-229.19"/>
</g>
<!-- n9 -->
<g id="node10" class="node">
<title>n9</title>
<ellipse fill="none" stroke="black" cx="467.67" cy="-185" rx="50.09" ry="18"/>
<text text-anchor="middle" x="467.67" y="-181.3" font-family="Times,serif" font-size="14.00">gui&#45;base</text>
</g>
<!-- n0&#45;&gt;n9 -->
<g id="edge11" class="edge">
<title>n0&#45;&gt;n9</title>
<path fill="none" stroke="black" d="M573.66,-130.24C552.99,-140.72 526.04,-154.39 504.48,-165.33"/>
<polygon fill="black" stroke="black" points="502.64,-162.34 495.31,-169.98 505.81,-168.58 502.64,-162.34"/>
</g>
<!-- n1 -->
<g id="node2" class="node">
<title>n1</title>
<ellipse fill="none" stroke="black" cx="467.67" cy="-41" rx="37.09" ry="18"/>
<text text-anchor="middle" x="467.67" y="-37.3" font-family="Times,serif" font-size="14.00">aurisi</text>
</g>
<!-- n1&#45;&gt;n0 -->
<g id="edge1" class="edge">
<title>n1&#45;&gt;n0</title>
<path fill="none" stroke="black" d="M492.34,-54.51C512.4,-64.69 541.11,-79.25 564.62,-91.18"/>
<polygon fill="black" stroke="black" points="563.17,-94.37 573.67,-95.77 566.34,-88.12 563.17,-94.37"/>
</g>
<!-- n2 -->
<g id="node3" class="node">
<title>n2</title>
<ellipse fill="none" stroke="black" cx="114.67" cy="-113" rx="87.18" ry="18"/>
<text text-anchor="middle" x="114.67" y="-109.3" font-family="Times,serif" font-size="14.00">auris&#45;tc&#45;displays</text>
</g>
<!-- n1&#45;&gt;n2 -->
<g id="edge2" class="edge">
<title>n1&#45;&gt;n2</title>
<path fill="none" stroke="black" d="M433.82,-48.71C376.76,-60.03 260.29,-83.12 184.95,-98.06"/>
<polygon fill="black" stroke="black" points="184.19,-94.65 175.06,-100.03 185.55,-101.51 184.19,-94.65"/>
</g>
<!-- n3 -->
<g id="node4" class="node">
<title>n3</title>
<ellipse fill="none" stroke="black" cx="348.67" cy="-113" rx="90.98" ry="18"/>
<text text-anchor="middle" x="348.67" y="-109.3" font-family="Times,serif" font-size="14.00">auris&#45;tm&#45;displays</text>
</g>
<!-- n1&#45;&gt;n3 -->
<g id="edge3" class="edge">
<title>n1&#45;&gt;n3</title>
<path fill="none" stroke="black" d="M445.01,-55.33C428.05,-65.31 404.51,-79.15 384.94,-90.66"/>
<polygon fill="black" stroke="black" points="383.11,-87.68 376.27,-95.77 386.66,-93.71 383.11,-87.68"/>
</g>
<!-- n4 -->
<g id="node5" class="node">
<title>n4</title>
<ellipse fill="none" stroke="black" cx="398.67" cy="-401" rx="50.89" ry="18"/>
<text text-anchor="middle" x="398.67" y="-397.3" font-family="Times,serif" font-size="14.00">esa&#45;base</text>
</g>
<!-- n1&#45;&gt;n4 -->
<g id="edge6" class="edge">
<title>n1&#45;&gt;n4</title>
<path fill="none" stroke="black" d="M504.11,-44.68C574.19,-50.44 724.54,-65.9 766.67,-95 804.55,-121.17 819.67,-137.96 819.67,-184 819.67,-184 819.67,-184 819.67,-258 819.67,-310.6 787.77,-321.68 741.67,-347 693.96,-373.2 542.78,-388.82 457.92,-395.74"/>
<polygon fill="black" stroke="black" points="457.6,-392.25 447.91,-396.54 458.16,-399.23 457.6,-392.25"/>
</g>
<!-- n5 -->
<g id="node6" class="node">
<title>n5</title>
<ellipse fill="none" stroke="black" cx="279.67" cy="-329" rx="40.89" ry="18"/>
<text text-anchor="middle" x="279.67" y="-325.3" font-family="Times,serif" font-size="14.00">esa&#45;db</text>
</g>
<!-- n1&#45;&gt;n5 -->
<g id="edge5" class="edge">
<title>n1&#45;&gt;n5</title>
<path fill="none" stroke="black" d="M430.95,-43.59C328.62,-48.38 45.95,-64.31 18.67,-95 -62.9,-186.77 147.06,-278.88 239.03,-313.58"/>
<polygon fill="black" stroke="black" points="238,-316.93 248.6,-317.14 240.45,-310.37 238,-316.93"/>
</g>
<!-- n6 -->
<g id="node7" class="node">
<title>n6</title>
<ellipse fill="none" stroke="black" cx="685.67" cy="-329" rx="46.59" ry="18"/>
<text text-anchor="middle" x="685.67" y="-325.3" font-family="Times,serif" font-size="14.00">esa&#45;mib</text>
</g>
<!-- n1&#45;&gt;n6 -->
<g id="edge7" class="edge">
<title>n1&#45;&gt;n6</title>
<path fill="none" stroke="black" d="M504.54,-43.45C572.78,-46.98 714.6,-58.63 744.67,-95 795.75,-156.78 736.94,-257.06 704.4,-303.26"/>
<polygon fill="black" stroke="black" points="701.48,-301.33 698.47,-311.49 707.16,-305.42 701.48,-301.33"/>
</g>
<!-- n1&#45;&gt;n7 -->
<g id="edge4" class="edge">
<title>n1&#45;&gt;n7</title>
<path fill="none" stroke="black" d="M504.4,-44.04C568.67,-48.47 697.3,-61.4 724.67,-95 782.31,-165.74 639.92,-216.02 548.12,-240.04"/>
<polygon fill="black" stroke="black" points="547.12,-236.69 538.3,-242.56 548.86,-243.47 547.12,-236.69"/>
</g>
<!-- n1&#45;&gt;n9 -->
<g id="edge8" class="edge">
<title>n1&#45;&gt;n9</title>
<path fill="none" stroke="black" d="M467.67,-59.13C467.67,-83.33 467.67,-127.79 467.67,-156.61"/>
<polygon fill="black" stroke="black" points="464.17,-156.81 467.67,-166.81 471.17,-156.81 464.17,-156.81"/>
</g>
<!-- n10 -->
<g id="node11" class="node">
<title>n10</title>
<ellipse fill="none" stroke="black" cx="247.67" cy="-185" rx="73.39" ry="18"/>
<text text-anchor="middle" x="247.67" y="-181.3" font-family="Times,serif" font-size="14.00">mcs&#45;interface</text>
</g>
<!-- n1&#45;&gt;n10 -->
<g id="edge9" class="edge">
<title>n1&#45;&gt;n10</title>
<path fill="none" stroke="black" d="M431.68,-45.44C375.54,-51.62 271.21,-66.69 248.67,-95 235.03,-112.14 236.19,-137.58 239.94,-156.88"/>
<polygon fill="black" stroke="black" points="236.58,-157.91 242.21,-166.88 243.41,-156.35 236.58,-157.91"/>
</g>
<!-- n2&#45;&gt;n4 -->
<g id="edge15" class="edge">
<title>n2&#45;&gt;n4</title>
<path fill="none" stroke="black" d="M115.88,-131.33C117.64,-149.71 121.85,-179.32 131.67,-203 161.33,-274.51 167.51,-300.86 229.67,-347 262.48,-371.35 306.76,-384.71 341.77,-391.91"/>
<polygon fill="black" stroke="black" points="341.36,-395.4 351.84,-393.87 342.7,-388.53 341.36,-395.4"/>
</g>
<!-- n2&#45;&gt;n7 -->
<g id="edge12" class="edge">
<title>n2&#45;&gt;n7</title>
<path fill="none" stroke="black" d="M119.55,-131.16C126.33,-151.72 140.7,-185.57 165.67,-203 199.03,-226.29 298.21,-240.37 375.89,-248.1"/>
<polygon fill="black" stroke="black" points="375.93,-251.62 386.22,-249.1 376.61,-244.65 375.93,-251.62"/>
</g>
<!-- n2&#45;&gt;n9 -->
<g id="edge13" class="edge">
<title>n2&#45;&gt;n9</title>
<path fill="none" stroke="black" d="M175.35,-126.03C242.9,-139.43 350.97,-160.86 415.06,-173.57"/>
<polygon fill="black" stroke="black" points="414.47,-177.02 424.96,-175.53 415.83,-170.15 414.47,-177.02"/>
</g>
<!-- n2&#45;&gt;n10 -->
<g id="edge14" class="edge">
<title>n2&#45;&gt;n10</title>
<path fill="none" stroke="black" d="M145.18,-130.06C164.2,-140.07 188.85,-153.04 209.2,-163.75"/>
<polygon fill="black" stroke="black" points="207.73,-166.94 218.21,-168.5 210.99,-160.74 207.73,-166.94"/>
</g>
<!-- n3&#45;&gt;n4 -->
<g id="edge17" class="edge">
<title>n3&#45;&gt;n4</title>
<path fill="none" stroke="black" d="M347.51,-131.16C345.41,-170.42 343.21,-269.39 367.67,-347 370.68,-356.56 375.66,-366.24 380.76,-374.67"/>
<polygon fill="black" stroke="black" points="377.91,-376.72 386.25,-383.26 383.81,-372.95 377.91,-376.72"/>
</g>
<!-- n3&#45;&gt;n7 -->
<g id="edge16" class="edge">
<title>n3&#45;&gt;n7</title>
<path fill="none" stroke="black" d="M357.85,-130.91C368.54,-149.73 387.48,-180.46 408.67,-203 419.08,-214.07 431.96,-224.62 443.76,-233.36"/>
<polygon fill="black" stroke="black" points="441.96,-236.37 452.12,-239.38 446.05,-230.69 441.96,-236.37"/>
</g>
<!-- n3&#45;&gt;n9 -->
<g id="edge18" class="edge">
<title>n3&#45;&gt;n9</title>
<path fill="none" stroke="black" d="M376.27,-130.24C393.34,-140.28 415.39,-153.25 433.55,-163.93"/>
<polygon fill="black" stroke="black" points="432.26,-167.23 442.65,-169.28 435.81,-161.2 432.26,-167.23"/>
</g>
<!-- n3&#45;&gt;n10 -->
<g id="edge19" class="edge">
<title>n3&#45;&gt;n10</title>
<path fill="none" stroke="black" d="M324.99,-130.41C311.44,-139.8 294.26,-151.71 279.54,-161.91"/>
<polygon fill="black" stroke="black" points="277.43,-159.12 271.2,-167.69 281.41,-164.87 277.43,-159.12"/>
</g>
<!-- n5&#45;&gt;n4 -->
<g id="edge20" class="edge">
<title>n5&#45;&gt;n4</title>
<path fill="none" stroke="black" d="M303.18,-343.83C320.8,-354.2 345.17,-368.53 364.88,-380.12"/>
<polygon fill="black" stroke="black" points="363.17,-383.18 373.57,-385.23 366.72,-377.15 363.17,-383.18"/>
</g>
<!-- n7&#45;&gt;n4 -->
<g id="edge21" class="edge">
<title>n7&#45;&gt;n4</title>
<path fill="none" stroke="black" d="M502.03,-274.67C513.32,-283.91 525.57,-296.46 531.67,-311 537.86,-325.75 540.65,-333.76 531.67,-347 514.71,-372.01 483.87,-385.22 456.15,-392.2"/>
<polygon fill="black" stroke="black" points="455.08,-388.85 446.11,-394.49 456.64,-395.67 455.08,-388.85"/>
</g>
<!-- n7&#45;&gt;n5 -->
<g id="edge22" class="edge">
<title>n7&#45;&gt;n5</title>
<path fill="none" stroke="black" d="M434.22,-273.36C400.38,-285.32 353.74,-301.81 320.57,-313.54"/>
<polygon fill="black" stroke="black" points="319,-310.38 310.74,-317.02 321.33,-316.98 319,-310.38"/>
</g>
<!-- n7&#45;&gt;n6 -->
<g id="edge23" class="edge">
<title>n7&#45;&gt;n6</title>
<path fill="none" stroke="black" d="M522.8,-273.19C558.04,-285.05 606.71,-301.43 641.66,-313.19"/>
<polygon fill="black" stroke="black" points="640.98,-316.65 651.58,-316.53 643.22,-310.02 640.98,-316.65"/>
</g>
<!-- n8 -->
<g id="node9" class="node">
<title>n8</title>
<ellipse fill="none" stroke="black" cx="449.67" cy="-329" rx="73.39" ry="18"/>
<text text-anchor="middle" x="449.67" y="-325.3" font-family="Times,serif" font-size="14.00">esa&#45;tm&#45;model</text>
</g>
<!-- n8&#45;&gt;n4 -->
<g id="edge24" class="edge">
<title>n8&#45;&gt;n4</title>
<path fill="none" stroke="black" d="M437.32,-346.95C431.19,-355.37 423.65,-365.72 416.86,-375.03"/>
<polygon fill="black" stroke="black" points="413.96,-373.07 410.9,-383.21 419.62,-377.19 413.96,-373.07"/>
</g>
<!-- n9&#45;&gt;n7 -->
<g id="edge25" class="edge">
<title>n9&#45;&gt;n7</title>
<path fill="none" stroke="black" d="M470.14,-203.3C471.24,-211.02 472.57,-220.29 473.8,-228.89"/>
<polygon fill="black" stroke="black" points="470.35,-229.49 475.23,-238.9 477.28,-228.5 470.35,-229.49"/>
</g>
<!-- n10&#45;&gt;n7 -->
<g id="edge26" class="edge">
<title>n10&#45;&gt;n7</title>
<path fill="none" stroke="black" d="M291.74,-199.41C327.94,-210.43 379.51,-226.13 419.16,-238.19"/>
<polygon fill="black" stroke="black" points="418.38,-241.62 428.97,-241.18 420.42,-234.92 418.38,-241.62"/>
</g>
</g>
</svg>
