<?xml version="1.0" encoding="UTF-8" standalone="no"?>
<!-- Created with Inkscape (http://www.inkscape.org/) -->

<svg
   xmlns:dc="http://purl.org/dc/elements/1.1/"
   xmlns:cc="http://creativecommons.org/ns#"
   xmlns:rdf="http://www.w3.org/1999/02/22-rdf-syntax-ns#"
   xmlns:svg="http://www.w3.org/2000/svg"
   xmlns="http://www.w3.org/2000/svg"
   xmlns:xlink="http://www.w3.org/1999/xlink"
   xmlns:sodipodi="http://sodipodi.sourceforge.net/DTD/sodipodi-0.dtd"
   xmlns:inkscape="http://www.inkscape.org/namespaces/inkscape"
   width="238.92714"
   height="258.99454"
   viewBox="0 0 63.216137 68.52564"
   version="1.1"
   id="svg8"
   inkscape:version="0.92.3 (2405546, 2018-03-11)"
   sodipodi:docname="AurisLogoBig.svg">
  <defs
     id="defs2">
    <linearGradient
       inkscape:collect="always"
       id="linearGradient1932">
      <stop
         style="stop-color:#000000;stop-opacity:1;"
         offset="0"
         id="stop1928" />
      <stop
         style="stop-color:#000000;stop-opacity:0;"
         offset="1"
         id="stop1930" />
    </linearGradient>
    <linearGradient
       inkscape:collect="always"
       id="linearGradient1846">
      <stop
         style="stop-color:#f7f7ff;stop-opacity:1"
         offset="0"
         id="stop1842" />
      <stop
         id="stop1850"
         offset="0.55065376"
         style="stop-color:#000018;stop-opacity:1" />
      <stop
         style="stop-color:#f2f2ff;stop-opacity:1"
         offset="1"
         id="stop1844" />
    </linearGradient>
    <linearGradient
       inkscape:collect="always"
       id="linearGradient1826">
      <stop
         style="stop-color:#cdcdff;stop-opacity:1"
         offset="0"
         id="stop1822" />
      <stop
         id="stop1830"
         offset="0.46829939"
         style="stop-color:#5a5aff;stop-opacity:1" />
      <stop
         style="stop-color:#00003c;stop-opacity:1"
         offset="1"
         id="stop1824" />
    </linearGradient>
    <linearGradient
       inkscape:collect="always"
       id="linearGradient1814">
      <stop
         style="stop-color:#fefefe;stop-opacity:1"
         offset="0"
         id="stop1810" />
      <stop
         id="stop1820"
         offset="0.22741726"
         style="stop-color:#bdbdbd;stop-opacity:0.99607843" />
      <stop
         id="stop1818"
         offset="0.7347858"
         style="stop-color:#454545;stop-opacity:0.99607843" />
      <stop
         style="stop-color:#000000;stop-opacity:0.9948718"
         offset="1"
         id="stop1812" />
    </linearGradient>
    <radialGradient
       inkscape:collect="always"
       xlink:href="#linearGradient1814"
       id="radialGradient1816"
       cx="340.91592"
       cy="526.8241"
       fx="340.91592"
       fy="526.8241"
       r="169.50204"
       gradientUnits="userSpaceOnUse"
       gradientTransform="matrix(0.16503699,0,0,0.16503699,-23.819117,-16.47299)" />
    <radialGradient
       inkscape:collect="always"
       xlink:href="#linearGradient1826"
       id="radialGradient1828"
       cx="98.207359"
       cy="142.36276"
       fx="98.207359"
       fy="142.36276"
       r="27.993816"
       gradientUnits="userSpaceOnUse"
       gradientTransform="matrix(0.62710535,0,0,0.62710535,-24.120703,-16.939037)" />
    <linearGradient
       inkscape:collect="always"
       xlink:href="#linearGradient1846"
       id="linearGradient1848"
       x1="221.17383"
       y1="544.35156"
       x2="464.20526"
       y2="544.35156"
       gradientUnits="userSpaceOnUse"
       gradientTransform="matrix(0.16592162,0,0,0.16592162,-24.120703,-16.939037)" />
    <linearGradient
       inkscape:collect="always"
       xlink:href="#linearGradient1932"
       id="linearGradient1934"
       x1="91.298294"
       y1="186.36275"
       x2="91.570885"
       y2="204.75914"
       gradientUnits="userSpaceOnUse"
       gradientTransform="matrix(2.370162,0,0,2.370162,-91.164862,-64.021557)" />
  </defs>
  <sodipodi:namedview
     id="base"
     pagecolor="#ffffff"
     bordercolor="#666666"
     borderopacity="1.0"
     inkscape:pageopacity="0.0"
     inkscape:pageshadow="2"
     inkscape:zoom="0.65923122"
     inkscape:cx="390.81393"
     inkscape:cy="-135.18619"
     inkscape:document-units="mm"
     inkscape:current-layer="layer1"
     showgrid="false"
     showborder="true"
     inkscape:object-paths="true"
     inkscape:snap-grids="false"
     inkscape:window-width="1920"
     inkscape:window-height="1033"
     inkscape:window-x="0"
     inkscape:window-y="25"
     inkscape:window-maximized="1"
     units="px"
     showguides="false"
     fit-margin-top="0"
     fit-margin-left="0"
     fit-margin-right="0"
     fit-margin-bottom="0" />
  <metadata
     id="metadata5">
    <rdf:RDF>
      <cc:Work
         rdf:about="">
        <dc:format>image/svg+xml</dc:format>
        <dc:type
           rdf:resource="http://purl.org/dc/dcmitype/StillImage" />
        <dc:title></dc:title>
      </cc:Work>
    </rdf:RDF>
  </metadata>
  <g
     inkscape:label="Layer 1"
     inkscape:groupmode="layer"
     id="layer1"
     transform="translate(-1.5971495,-44.206348)">
    <g
       aria-label="A"
       transform="matrix(0.62261164,0,0,0.63163148,-24.120703,-16.939037)"
       style="font-style:normal;font-variant:normal;font-weight:normal;font-stretch:normal;font-size:13165.515625px;line-height:125%;font-family:Anklepants;-inkscape-font-specification:'Anklepants, Normal';font-variant-ligatures:normal;font-variant-caps:normal;font-variant-numeric:normal;font-feature-settings:normal;text-align:start;letter-spacing:0px;word-spacing:0px;writing-mode:lr-tb;text-anchor:start;fill:#000000;fill-opacity:1;stroke:none;stroke-width:448.82437134px;stroke-linecap:butt;stroke-linejoin:miter;stroke-opacity:1"
       id="text1096" />
    <g
       id="g48">
      <rect
         y="44.206348"
         x="1.5971495"
         height="68.525635"
         width="63.216141"
         id="rect1936"
         style="opacity:1;fill:#ffffff;fill-opacity:1;stroke:none;stroke-width:0.04977649;stroke-linecap:round;stroke-miterlimit:4;stroke-dasharray:none;stroke-dashoffset:0;stroke-opacity:1" />
      <circle
         r="17.523451"
         cy="75.158638"
         cx="32.722847"
         id="path1808"
         style="opacity:1;fill:url(#radialGradient1828);fill-opacity:1;stroke:#000000;stroke-width:0.06324001;stroke-linecap:round;stroke-miterlimit:4;stroke-dasharray:none;stroke-dashoffset:0;stroke-opacity:1" />
      <path
         id="path1789"
         d="m 41.481854,48.483666 -5.124126,2.608401 -1.3789,4.077075 a 20.125913,20.125913 0 0 0 -2.255821,-0.136433 20.125913,20.125913 0 0 0 -20.126098,20.125773 20.125913,20.125913 0 0 0 2.745485,10.098209 l -2.545536,1.425567 0.0058,5.107272 5.408008,-4.573862 c 0.539014,-0.298622 1.12359,-0.792636 1.753843,-1.483249 l 0.0045,-0.0038 -6.9e-4,-3.33e-4 c 0.235606,-0.258386 0.477238,-0.542722 0.725582,-0.855854 1.420397,-1.806371 2.848312,-3.805464 4.28415,-5.997811 l 0.949511,-1.366262 c 1.54391,-2.346748 2.894835,-4.484995 4.052765,-6.41488 1.157932,-1.929886 2.331514,-4.006602 3.520326,-6.229834 1.204249,-2.238666 2.315655,-4.44666 3.334636,-6.623581 h 0.440081 c 0,-0.432289 0.200695,-0.864615 0.602114,-1.29691 0.322942,-0.347774 0.696776,-0.644614 1.119644,-0.892478 z m 3.47269,1.420055 -3.469774,7.16412 c -0.0038,0.400508 -0.0097,0.764141 -0.01781,1.079788 0,0.586688 -0.0077,1.235166 -0.02302,1.945362 0,3.24221 0.06158,6.383958 0.18504,9.42545 0.138954,3.026066 0.363013,6.337884 0.671787,9.935205 0.09264,0.926341 0.200554,1.814022 0.324069,2.663172 0.138954,0.849157 0.316626,1.752289 0.532764,2.709516 0.21615,0.941786 0.432314,1.775504 0.648452,2.501134 0.09264,0.308787 0.270301,0.563768 0.532763,0.764473 l 1.590195,1.770375 -0.385638,0.221982 c -0.389188,0.183855 -0.797741,0.353876 -1.227885,0.508457 -0.972659,0.370544 -1.706034,0.555773 -2.200086,0.555773 h -0.301055 c -0.957226,0 -1.667235,-0.424425 -2.130408,-1.273576 -0.27249,-0.605521 -0.597751,-1.888421 -0.974139,-3.829808 l 1.56459,-1.399316 -2.142076,-2.691367 H 25.325561 l -2.929553,2.691367 0.73012,0.532437 c -0.366563,0.520742 -0.719175,1.015535 -1.042844,1.454408 -0.822837,1.134948 -1.797488,2.256877 -2.920156,3.36575 a 20.125913,20.125913 0 0 0 13.559879,5.286153 20.125913,20.125913 0 0 0 7.691702,-1.547734 l 0.505867,3.730318 6.387977,0.82961 5.560324,-3.596807 -2.513131,-2.437621 1.515657,-1.01724 -0.663691,-5.558374 -1.053211,-0.503597 A 20.125913,20.125913 0 0 0 52.848778,75.158482 20.125913,20.125913 0 0 0 48.061362,62.160533 L 48.552968,58.39262 Z M 37.228816,61.41291 c -1.651983,3.381158 -3.365481,6.60811 -5.140978,9.680494 -1.760057,3.072371 -3.558765,5.997955 -5.396017,8.776991 0.864592,-0.416855 1.543999,-0.656052 2.038049,-0.717803 h 9.147726 c -0.432295,-5.789669 -0.64878,-11.448335 -0.64878,-16.975535 z"
         style="opacity:1;fill:url(#linearGradient1848);fill-opacity:1;stroke:#000000;stroke-width:0.04018212;stroke-linecap:round;stroke-miterlimit:4;stroke-dasharray:none;stroke-dashoffset:0;stroke-opacity:1"
         inkscape:connector-curvature="0" />
      <path
         id="path1774"
         d="M 32.723007,47.062639 A 28.096013,28.096013 0 0 0 4.6268391,75.158482 28.096013,28.096013 0 0 0 10.5971,92.459372 c 0.0857,0.0044 0.171303,0.01035 0.257308,0.01035 1.400956,0 3.092951,-1.250241 5.075841,-3.750409 1.98289,-2.521716 3.976511,-5.312661 5.980956,-8.373211 l 1.325428,-1.907448 c 2.155317,-3.276086 4.041376,-6.261089 5.657862,-8.955234 1.616487,-2.694145 3.254538,-5.59329 4.914133,-8.696947 1.681146,-3.125205 3.232694,-6.207246 4.655203,-9.246242 h 0.614428 c 0,-0.603489 0.280241,-1.207072 0.840629,-1.81056 0.450826,-0.485505 0.972634,-0.900016 1.562966,-1.246027 a 28.096013,28.096013 0 0 0 -8.758847,-1.421027 z m 12.231537,2.841082 c -0.0056,0.559108 -0.01329,1.066574 -0.02465,1.507229 0,0.819018 -0.01085,1.724226 -0.03242,2.715667 0,4.526164 0.08618,8.912396 0.2586,13.158363 0.193982,4.22442 0.506782,8.847472 0.937848,13.869363 0.129322,1.293186 0.279971,2.532584 0.452394,3.718008 0.193982,1.185417 0.44199,2.446193 0.743734,3.782492 0.301745,1.314745 0.60337,2.47849 0.905114,3.491484 0.129315,0.431066 0.377323,0.786961 0.743728,1.067146 0.387959,0.258643 0.808,0.387908 1.26062,0.387908 1.250084,-0.711256 2.306261,-1.110233 3.168387,-1.196448 h 0.387908 c 0.323292,0.172423 0.485129,0.345109 0.485129,0.517531 0,0.126469 -0.02747,0.256581 -0.0794,0.390179 A 28.096013,28.096013 0 0 0 60.818823,75.158482 28.096013,28.096013 0 0 0 44.954512,49.903721 Z m -5.941096,6.065858 c -2.306191,4.720147 -4.69847,9.224783 -7.177084,13.513863 -2.45706,4.289081 -4.96808,8.373356 -7.532906,12.252924 1.206976,-0.581935 2.155272,-0.916126 2.844971,-1.002334 h 12.770459 c -0.603489,-8.082441 -0.90544,-15.981598 -0.90544,-23.697627 z m -16.61744,28.676249 c -1.745808,2.629484 -3.254589,4.806323 -4.526226,6.530574 -1.14869,1.584401 -2.509163,3.150622 -4.076422,4.698625 a 28.096013,28.096013 0 0 0 18.929647,7.379623 28.096013,28.096013 0 0 0 20.14587,-8.554687 c -0.08964,0.06443 -0.178299,0.128801 -0.276755,0.19444 -1.077655,0.711257 -2.306198,1.314833 -3.685598,1.810554 -1.357852,0.51728 -2.38179,0.775817 -3.071493,0.775817 h -0.420317 c -1.336293,0 -2.327678,-0.592721 -2.974273,-1.778151 -0.387959,-0.862119 -0.851409,-2.693913 -1.390243,-5.495826 -0.517274,-2.823466 -0.775811,-4.67729 -0.775811,-5.560969 z"
         style="opacity:1;fill:url(#radialGradient1816);fill-opacity:1;stroke:#000000;stroke-width:0.05609472;stroke-linecap:round;stroke-miterlimit:4;stroke-dasharray:none;stroke-dashoffset:0;stroke-opacity:1"
         inkscape:connector-curvature="0" />
      <path
         id="path1926"
         transform="scale(0.26458333)"
         d="m 123.67773,390.4668 a 106.18966,106.18966 0 0 0 -71.544918,27.89062 c 1.126574,1.11274 2.215252,2.22799 3.285157,3.3457 H 159.40039 c 0.3477,-1.06217 0.68346,-1.98126 1.00391,-2.69335 2.44382,-4.48037 6.19163,-6.72071 11.24218,-6.72071 h 1.5879 c 2.60675,0 6.47733,0.97657 11.60937,2.93164 4.97595,1.78823 9.42623,3.95207 13.36328,6.48242 h 0.44141 A 106.18966,106.18966 0 0 0 123.67773,390.4668 Z"
         style="opacity:1;fill:url(#linearGradient1934);fill-opacity:1;stroke:none;stroke-width:0.21201155;stroke-linecap:round;stroke-miterlimit:4;stroke-dasharray:none;stroke-dashoffset:0;stroke-opacity:1"
         inkscape:connector-curvature="0" />
    </g>
  </g>
</svg>
