<?xml version="1.0" encoding="UTF-8" standalone="no"?>
<!-- Created with Inkscape (http://www.inkscape.org/) -->

<svg
   xmlns:dc="http://purl.org/dc/elements/1.1/"
   xmlns:cc="http://creativecommons.org/ns#"
   xmlns:rdf="http://www.w3.org/1999/02/22-rdf-syntax-ns#"
   xmlns:svg="http://www.w3.org/2000/svg"
   xmlns="http://www.w3.org/2000/svg"
   xmlns:xlink="http://www.w3.org/1999/xlink"
   xmlns:sodipodi="http://sodipodi.sourceforge.net/DTD/sodipodi-0.dtd"
   xmlns:inkscape="http://www.inkscape.org/namespaces/inkscape"
   width="130.01202mm"
   height="141.73412mm"
   viewBox="0 0 130.01202 141.73412"
   version="1.1"
   id="svg8"
   inkscape:version="0.92.3 (2405546, 2018-03-11)"
   sodipodi:docname="AurisLogo.svg">
  <defs
     id="defs2">
    <linearGradient
       inkscape:collect="always"
       id="linearGradient1932">
      <stop
         style="stop-color:#000000;stop-opacity:1;"
         offset="0"
         id="stop1928" />
      <stop
         style="stop-color:#000000;stop-opacity:0;"
         offset="1"
         id="stop1930" />
    </linearGradient>
    <linearGradient
       inkscape:collect="always"
       id="linearGradient1846">
      <stop
         style="stop-color:#f7f7ff;stop-opacity:1"
         offset="0"
         id="stop1842" />
      <stop
         id="stop1850"
         offset="0.55065376"
         style="stop-color:#000018;stop-opacity:1" />
      <stop
         style="stop-color:#f2f2ff;stop-opacity:1"
         offset="1"
         id="stop1844" />
    </linearGradient>
    <linearGradient
       inkscape:collect="always"
       id="linearGradient1826">
      <stop
         style="stop-color:#cdcdff;stop-opacity:1"
         offset="0"
         id="stop1822" />
      <stop
         id="stop1830"
         offset="0.46829939"
         style="stop-color:#5a5aff;stop-opacity:1" />
      <stop
         style="stop-color:#00003c;stop-opacity:1"
         offset="1"
         id="stop1824" />
    </linearGradient>
    <linearGradient
       inkscape:collect="always"
       id="linearGradient1814">
      <stop
         style="stop-color:#fefefe;stop-opacity:1"
         offset="0"
         id="stop1810" />
      <stop
         id="stop1820"
         offset="0.22741726"
         style="stop-color:#bdbdbd;stop-opacity:0.99607843" />
      <stop
         id="stop1818"
         offset="0.7347858"
         style="stop-color:#454545;stop-opacity:0.99607843" />
      <stop
         style="stop-color:#000000;stop-opacity:0.9948718"
         offset="1"
         id="stop1812" />
    </linearGradient>
    <radialGradient
       inkscape:collect="always"
       xlink:href="#linearGradient1814"
       id="radialGradient1816"
       cx="340.91592"
       cy="526.8241"
       fx="340.91592"
       fy="526.8241"
       r="169.50204"
       gradientUnits="userSpaceOnUse"
       gradientTransform="matrix(0.33941956,0,0,0.33941956,-60.923549,-99.566985)" />
    <radialGradient
       inkscape:collect="always"
       xlink:href="#linearGradient1826"
       id="radialGradient1828"
       cx="98.207359"
       cy="142.36276"
       fx="98.207359"
       fy="142.36276"
       r="27.993816"
       gradientUnits="userSpaceOnUse"
       gradientTransform="matrix(1.2897219,0,0,1.2897219,-61.543799,-100.52547)" />
    <linearGradient
       inkscape:collect="always"
       xlink:href="#linearGradient1846"
       id="linearGradient1848"
       x1="221.17383"
       y1="544.35156"
       x2="464.20526"
       y2="544.35156"
       gradientUnits="userSpaceOnUse"
       gradientTransform="matrix(0.34123892,0,0,0.34123892,-61.543799,-100.52547)" />
    <linearGradient
       inkscape:collect="always"
       xlink:href="#linearGradient1932"
       id="linearGradient1934"
       x1="91.298294"
       y1="186.36275"
       x2="91.570885"
       y2="204.75914"
       gradientUnits="userSpaceOnUse"
       gradientTransform="matrix(4.8745395,0,0,4.8745395,-232.60648,-379.93878)" />
  </defs>
  <sodipodi:namedview
     id="base"
     pagecolor="#ffffff"
     bordercolor="#666666"
     borderopacity="1.0"
     inkscape:pageopacity="0.0"
     inkscape:pageshadow="2"
     inkscape:zoom="0.6592312"
     inkscape:cx="439.40995"
     inkscape:cy="291.24735"
     inkscape:document-units="mm"
     inkscape:current-layer="layer1"
     showgrid="false"
     showborder="true"
     inkscape:object-paths="true"
     inkscape:snap-grids="false"
     inkscape:window-width="1920"
     inkscape:window-height="1033"
     inkscape:window-x="0"
     inkscape:window-y="25"
     inkscape:window-maximized="1"
     fit-margin-top="0"
     fit-margin-left="0"
     fit-margin-right="0"
     fit-margin-bottom="0" />
  <metadata
     id="metadata5">
    <rdf:RDF>
      <cc:Work
         rdf:about="">
        <dc:format>image/svg+xml</dc:format>
        <dc:type
           rdf:resource="http://purl.org/dc/dcmitype/StillImage" />
        <dc:title></dc:title>
      </cc:Work>
    </rdf:RDF>
  </metadata>
  <g
     inkscape:label="Layer 1"
     inkscape:groupmode="layer"
     id="layer1"
     transform="translate(-49.14283,-83.825084)">
    <g
       aria-label="A"
       transform="matrix(1.28048,0,0,1.2990305,-61.543799,-100.52547)"
       style="font-style:normal;font-variant:normal;font-weight:normal;font-stretch:normal;font-size:13165.515625px;line-height:125%;font-family:Anklepants;-inkscape-font-specification:'Anklepants, Normal';font-variant-ligatures:normal;font-variant-caps:normal;font-variant-numeric:normal;font-feature-settings:normal;text-align:start;letter-spacing:0px;word-spacing:0px;writing-mode:lr-tb;text-anchor:start;fill:#000000;fill-opacity:1;stroke:none;stroke-width:448.82437134px;stroke-linecap:butt;stroke-linejoin:miter;stroke-opacity:1"
       id="text1096" />
    <g
       id="g1406"
       transform="translate(57.794595,58.597297)">
      <rect
         y="25.227787"
         x="-8.6517649"
         height="140.93167"
         width="130.01202"
         id="rect1936"
         style="opacity:1;fill:#ffffff;fill-opacity:1;stroke:none;stroke-width:0.10237168;stroke-linecap:round;stroke-miterlimit:4;stroke-dasharray:none;stroke-dashoffset:0;stroke-opacity:1" />
      <circle
         r="36.039207"
         cy="88.885117"
         cx="55.36219"
         id="path1808"
         style="opacity:1;fill:url(#radialGradient1828);fill-opacity:1;stroke:#000000;stroke-width:0.13006113;stroke-linecap:round;stroke-miterlimit:4;stroke-dasharray:none;stroke-dashoffset:0;stroke-opacity:1" />
      <path
         id="path1789"
         d="M 73.376201,34.024638 62.837786,39.389146 60.001903,47.77417 A 41.391499,41.391499 0 0 0 55.36252,47.493578 41.391499,41.391499 0 0 0 13.97064,88.884791 41.391499,41.391499 0 0 0 19.617078,109.65304 l -5.235218,2.93186 0.01199,10.50375 11.122256,-9.40672 c 1.108552,-0.61416 2.310805,-1.63016 3.607001,-3.05049 l 0.0093,-0.008 -0.0014,-6.9e-4 c 0.484552,-0.5314 0.981499,-1.11617 1.492251,-1.76017 2.921227,-3.71503 5.857915,-7.82642 8.810899,-12.335261 l 1.952789,-2.809891 c 3.175249,-4.826384 5.953597,-9.223962 8.335028,-13.193017 2.381434,-3.969054 4.795055,-8.240084 7.239997,-12.812445 2.476692,-4.604101 4.76244,-9.145121 6.858104,-13.622236 h 0.905082 c 0,-0.889057 0.412756,-1.778191 1.238325,-2.667261 0.664171,-0.715241 1.433009,-1.325731 2.302689,-1.835494 z m 7.142029,2.920524 -7.136031,14.733925 c -0.0077,0.823694 -0.01986,1.571552 -0.03663,2.22072 0,1.2066 -0.01574,2.540275 -0.04733,4.000885 0,6.668017 0.12665,13.129421 0.380558,19.384637 0.285777,6.223488 0.746581,13.034664 1.381615,20.433012 0.190517,1.905139 0.412466,3.730769 0.666489,5.477149 0.285777,1.7464 0.651181,3.60381 1.095696,5.57247 0.444542,1.9369 0.889109,3.65155 1.333624,5.1439 0.190531,0.63506 0.555909,1.15946 1.095697,1.57223 l 3.270438,3.641 -0.793115,0.45654 c -0.800414,0.37812 -1.640655,0.72779 -2.525301,1.04571 -2.000397,0.76207 -3.508676,1.14301 -4.524757,1.14301 h -0.619157 c -1.968657,0 -3.428881,-0.87288 -4.381456,-2.61927 -0.56041,-1.24533 -1.22935,-3.88378 -2.003441,-7.87648 l 3.217778,-2.87788 -4.405451,-5.53514 H 40.148731 l -6.024999,5.53514 1.501585,1.09503 c -0.753883,1.07097 -1.479074,2.08857 -2.144742,2.99117 -1.692269,2.33417 -3.696761,4.64156 -6.005671,6.92209 a 41.391499,41.391499 0 0 0 27.887616,10.87165 41.391499,41.391499 0 0 0 15.818962,-3.18311 l 1.04038,7.67187 13.137687,1.7062 11.435513,-7.39729 -5.168573,-5.01328 3.117141,-2.09208 -1.364964,-11.4315 -2.166062,-1.03571 a 41.391499,41.391499 0 0 0 5.541122,-20.616969 41.391499,41.391499 0 0 0 -9.84593,-26.731937 l 1.011052,-7.749191 z M 64.62929,60.615273 c -3.397515,6.953781 -6.921541,13.590419 -10.573076,19.909166 -3.619781,6.318722 -7.319053,12.335558 -11.097595,18.051 1.778142,-0.857317 3.175429,-1.349256 4.191506,-1.476255 H 65.963588 C 65.074518,85.191994 64.62929,73.554228 64.62929,62.186838 Z"
         style="opacity:1;fill:url(#linearGradient1848);fill-opacity:1;stroke:#000000;stroke-width:0.08263965;stroke-linecap:round;stroke-miterlimit:4;stroke-dasharray:none;stroke-dashoffset:0;stroke-opacity:1"
         inkscape:connector-curvature="0" />
      <path
         id="path1774"
         d="M 55.36252,31.102116 A 57.783023,57.783023 0 0 0 -2.4208229,88.884791 57.783023,57.783023 0 0 0 9.8577784,124.46627 c 0.1762426,0.009 0.3523056,0.0213 0.5291866,0.0213 2.881244,0 6.361046,-2.57128 10.439113,-7.71319 4.078064,-5.18623 8.1782,-10.92617 12.300595,-17.220577 l 2.725912,-3.922908 c 4.432683,-6.737688 8.311604,-12.876726 11.636113,-18.417577 3.32451,-5.540852 6.693371,-11.503314 10.106539,-17.88638 3.45749,-6.42738 6.648446,-12.765989 9.574017,-19.016072 h 1.26365 c 0,-1.241151 0.576351,-2.482495 1.728859,-3.723646 0.927181,-0.998503 2.000346,-1.850996 3.214438,-2.562613 A 57.783023,57.783023 0 0 0 55.36252,31.102064 Z m 25.15571,5.843046 c -0.01161,1.149877 -0.02734,2.193546 -0.05069,3.099808 0,1.684415 -0.02231,3.54609 -0.06668,5.585115 0,9.308632 0.177234,18.329476 0.531843,27.061847 0.39895,8.688057 1.042263,18.195952 1.928805,28.524108 0.265966,2.6596 0.575796,5.20858 0.930405,7.64656 0.39895,2.43796 0.909009,5.0309 1.529585,7.77917 0.620575,2.70394 1.240905,5.09733 1.861481,7.18068 0.265954,0.88655 0.776013,1.61849 1.529571,2.19472 0.797887,0.53194 1.661756,0.79779 2.592625,0.79779 2.570958,-1.46279 4.74312,-2.28334 6.516191,-2.46065 h 0.797783 c 0.664891,0.35461 0.997729,0.70976 0.997729,1.06437 0,0.2601 -0.05649,0.52769 -0.163291,0.80245 A 57.783023,57.783023 0 0 0 113.14514,88.884791 57.783023,57.783023 0 0 0 80.518165,36.945162 Z M 68.299611,49.420371 c -4.742975,9.707582 -9.663001,18.971938 -14.760586,27.792978 -5.053257,8.82104 -10.217488,17.22087 -15.492379,25.199691 2.4823,-1.19682 4.432591,-1.88412 5.851045,-2.06142 H 70.161763 C 68.920612,83.72905 68.299611,67.483429 68.299611,51.614433 Z M 34.123732,108.39672 c -3.590475,5.40787 -6.693476,9.88482 -9.308759,13.43096 -2.362427,3.25852 -5.160413,6.47965 -8.383681,9.66332 a 57.783023,57.783023 0 0 0 38.931228,15.17714 57.783023,57.783023 0 0 0 41.432542,-17.59381 c -0.184366,0.13251 -0.366694,0.2649 -0.56918,0.39989 -2.216336,1.46279 -4.742991,2.70412 -7.579902,3.72364 -2.792596,1.06385 -4.898454,1.59556 -6.316916,1.59556 h -0.864436 c -2.748256,0 -4.787164,-1.219 -6.116971,-3.65699 -0.797886,-1.77306 -1.751029,-5.54038 -2.85921,-11.30287 -1.06384,-5.80681 -1.595553,-9.61944 -1.595553,-11.43684 z"
         style="opacity:1;fill:url(#radialGradient1816);fill-opacity:1;stroke:#000000;stroke-width:0.11536592;stroke-linecap:round;stroke-miterlimit:4;stroke-dasharray:none;stroke-dashoffset:0;stroke-opacity:1"
         inkscape:connector-curvature="0" />
      <path
         id="path1926"
         transform="scale(0.26458333)"
         d="M 209.24414,554.77148 A 218.39253,218.39253 0 0 0 62.101562,612.13477 c 6.340222,6.26233 12.235207,12.56335 17.699219,18.90234 H 279.36523 c 1.97388,-8.03299 3.78327,-13.93855 5.41407,-17.5625 5.02604,-9.21445 12.73203,-13.82227 23.11914,-13.82227 h 3.26562 c 5.36112,0 13.32031,2.0104 23.875,6.03125 10.72219,3.85331 20.27174,8.54557 28.64844,14.07422 0.7653,0.5102 1.45553,1.0109 2.15234,1.51172 a 218.39253,218.39253 0 0 0 -156.5957,-66.49805 z m 135.8457,75.03711 c -2.2422,0 -4.38047,0.41208 -6.41796,1.22852 h 8.66015 c -0.74337,-0.40365 -1.48028,-0.79502 -2.24219,-1.22852 z"
         style="opacity:1;fill:url(#linearGradient1934);fill-opacity:1;stroke:none;stroke-width:0.43602869;stroke-linecap:round;stroke-miterlimit:4;stroke-dasharray:none;stroke-dashoffset:0;stroke-opacity:1"
         inkscape:connector-curvature="0" />
    </g>
  </g>
</svg>
